<?xml version="1.0" encoding="UTF-8"?>
<svg width="1385px" height="994px" viewBox="0 0 1385 994" version="1.1" xmlns="http://www.w3.org/2000/svg" xmlns:xlink="http://www.w3.org/1999/xlink">
    <!-- Generator: Sketch 50 (54983) - http://www.bohemiancoding.com/sketch -->
    <title>Group 12</title>
    <desc>Created with Sketch.</desc>
    <defs>
        <polygon id="path-1" points="0 0 46 0 46 52 0 52"></polygon>
        <polygon id="path-3" points="0 0 131.016776 0 131.016776 148.105921 0 148.105921"></polygon>
        <polygon id="path-5" points="0 0 82.056634 0 82.056634 92.7596732 0 92.7596732"></polygon>
        <polygon id="path-7" points="0 0 62.6063416 0 62.6063416 70.7723861 0 70.7723861"></polygon>
        <polygon id="path-9" points="0 0 47.5757332 0 47.5757332 53.7812636 0 53.7812636"></polygon>
        <polygon id="path-11" points="0 0 82.4564888 0 82.4564888 93.211683 0 93.211683"></polygon>
        <polygon id="path-13" points="0 0 67.4790348 0 67.4790348 76.2806481 0 76.2806481"></polygon>
    </defs>
    <g id="Welcome" stroke="none" stroke-width="1" fill="none" fill-rule="evenodd">
        <g id="Desktop-HD" transform="translate(-229.000000, -4420.000000)">
            <g id="Group-12" transform="translate(224.000000, 4408.000000)">
                <g id="Page-1" transform="translate(34.000000, 35.000000) rotate(-31.000000) translate(-34.000000, -35.000000) translate(11.000000, 9.000000)">
                    <mask id="mask-2" fill="white">
                        <use xlink:href="#path-1"></use>
                    </mask>
                    <g id="Clip-2"></g>
                    <path d="M32.727913,35.6243642 C32.4364389,36.1665819 32.0522229,36.6393693 31.5785774,37.0361139 C31.1049318,37.439471 30.5451689,37.7535605 29.8992886,37.9883011 C29.2600328,38.2197355 28.574406,38.3222279 27.852345,38.3023906 L18.4324295,38.0081384 L18.7106549,29.0648525 L28.1338825,29.3591048 C28.8294459,29.378942 29.4918872,29.5144964 30.1212065,29.7657681 C30.7505257,30.0137335 31.2970398,30.3410478 31.7574365,30.7543235 C32.2178332,31.1609868 32.5755515,31.6403866 32.8372158,32.1826043 C33.0922558,32.724822 33.2114952,33.3067141 33.1949342,33.9282808 C33.1750609,34.5200916 33.0193872,35.0887589 32.727913,35.6243642 M30.0682112,14.2464395 C30.6842816,14.5241607 31.2142346,14.8878433 31.6646947,15.3209563 C32.1085304,15.7573754 32.4629365,16.2400814 32.7212886,16.7756867 C32.9796407,17.3046796 33.0988802,17.8336724 33.0823191,18.3560529 C33.0657581,18.8982706 32.9133966,19.4140387 32.6219224,19.9000509 C32.3337605,20.3926755 31.9528567,20.8290946 31.4792112,21.2126144 C31.0022534,21.5928281 30.4524271,21.896999 29.8231079,22.1085961 C29.1904764,22.3301119 28.5214107,22.4259919 27.8258473,22.4028484 L18.9292605,22.121821 L19.1975492,13.5157681 L28.0974483,13.7901831 C28.7963238,13.8133266 29.4521407,13.9621058 30.0682112,14.2464395 M44.5061196,29.5277213 C43.4594623,28.301119 42.012028,27.2596643 40.167129,26.3901322 C41.9590327,25.6991353 43.3567839,24.7634791 44.3537581,23.5798576 C45.3540444,22.3929298 45.8806853,20.8720753 45.9369928,19.0139878 C45.9899881,17.4270092 45.6057721,15.9160732 44.7909693,14.4778739 C43.9761665,13.0396745 42.8069576,11.7700916 41.2965914,10.6658189 C39.7862252,9.56154629 37.9744482,8.67217701 35.8579482,7.98779247 C33.7480727,7.30340793 31.4096548,6.9198881 28.8393825,6.84053917 L23.7551455,6.67192269 L23.9505656,0.522380468 L19.5287699,0.380213632 L19.3366619,6.52644964 L11.4635469,6.26525941 L11.6589671,0.135554425 L7.24048354,0 L7.04506336,6.11978637 L1.20233098,5.92802645 L0.983725349,12.9471007 L6.78008683,13.1256358 L6.01496712,37.6213123 L0.215293426,37.4361648 L0,44.3758901 L5.84273237,44.5610376 L5.63406336,51.16353 L10.0525469,51.3023906 L10.2612159,44.6965921 L18.1277065,44.9445575 L17.9124131,51.8611394 L22.3308966,52 L22.5495023,45.0834181 L28.4584788,45.2685656 C30.8730774,45.3413021 33.1419389,45.1230926 35.2518144,44.6073245 C37.3650022,44.0915565 39.2065891,43.3245168 40.7699506,42.3194303 C42.3366243,41.3110376 43.5853261,40.094354 44.5160562,38.6726857 C45.4500984,37.2444049 45.940305,35.6640387 45.9966125,33.9249746 C46.0462956,32.2189725 45.5494646,30.7510173 44.5061196,29.5277213" id="Fill-1" fill="#009275" mask="url(#mask-2)"></path>
                </g>
                <g id="Page-1-Copy" transform="translate(1261.000000, 610.500000) rotate(-15.000000) translate(-1261.000000, -610.500000) translate(1195.000000, 536.000000)">
                    <mask id="mask-4" fill="white">
                        <use xlink:href="#path-3"></use>
                    </mask>
                    <g id="Clip-2"></g>
                    <path d="M93.2153404,101.464986 C92.3851663,103.009325 91.290846,104.355914 89.9418131,105.485919 C88.5927802,106.634756 86.9984687,107.529343 85.1588784,108.197929 C83.3381557,108.857099 81.3853599,109.149016 79.3287924,109.092516 L52.4990759,108.254429 L53.2915148,82.7822451 L80.130665,83.6203318 C82.1117622,83.676832 83.9985215,84.0629168 85.7909428,84.7785864 C87.583364,85.4848392 89.1399404,86.4170929 90.4512381,87.5941809 C91.7625358,88.7524355 92.7813858,90.1178575 93.5266557,91.662197 C94.253058,93.2065365 94.5926746,94.8638764 94.5455056,96.6342167 C94.4889029,98.3198067 94.0455144,99.9394798 93.2153404,101.464986 M85.640002,40.5765777 C87.3946881,41.3675808 88.9040955,42.4034182 90.1870918,43.6370065 C91.4512205,44.8800114 92.4606367,46.2548502 93.1964728,47.7803562 C93.9323089,49.2870289 94.2719256,50.7937015 94.2247566,52.2815408 C94.1775876,53.8258802 93.743633,55.294886 92.9134589,56.6791415 C92.0927186,58.0822304 91.0078321,59.3252354 89.6587992,60.417573 C88.3003326,61.500494 86.7343224,62.3668308 84.9419011,62.9694998 C83.140046,63.600419 81.2344192,63.8735034 79.253322,63.8075865 L53.9141454,63.0071666 L54.6782829,38.4954861 L80.0268933,39.2770725 C82.0174243,39.3429894 83.8853159,39.7667411 85.640002,40.5765777 M126.76192,84.1005837 C123.78084,80.6069865 119.658271,77.6407247 114.403647,75.1641315 C119.50733,73.1960404 123.488392,70.5311132 126.327965,67.1599331 C129.176972,63.7793364 130.676945,59.4476525 130.83732,54.1554649 C130.98826,49.6354469 129.89394,45.3320132 127.573226,41.2357469 C125.252512,37.1394807 121.922382,33.5234663 117.620571,30.3782872 C113.31876,27.233108 108.158474,24.7000147 102.130278,22.7507569 C96.1209496,20.8014992 89.4606895,19.7091615 82.1400636,19.4831606 L67.6591864,19.0029087 L68.2157804,1.48783924 L55.6216625,1.08292096 L55.0745023,18.5885737 L32.6503687,17.8446541 L33.2069627,0.386084865 L20.6222785,0 L20.0656845,17.4303192 L3.42446803,16.8841503 L2.80183748,36.875813 L19.3109808,37.384315 L17.1317739,107.152675 L0.613196754,106.62534 L0,126.391001 L16.6412165,126.918337 L16.0468874,145.723495 L28.6315715,146.118996 L29.2259007,127.304422 L51.6311667,128.010675 L51.0179699,147.710419 L63.6026541,148.105921 L64.2252846,128.406176 L81.0551771,128.933512 C87.9324145,129.140679 94.3945649,128.519177 100.403893,127.050171 C106.422655,125.581165 111.667846,123.39649 116.120598,120.533812 C120.582783,117.661717 124.139324,114.19637 126.790221,110.147187 C129.450552,106.079171 130.846753,101.577986 131.007128,96.6248 C131.148635,91.7657807 129.733566,87.5847642 126.76192,84.1005837" id="Fill-1" fill="#009275" mask="url(#mask-4)"></path>
                </g>
                <g id="Page-1-Copy-2" transform="translate(1300.500000, 959.500000) rotate(6.000000) translate(-1300.500000, -959.500000) translate(1259.000000, 913.000000)">
                    <mask id="mask-6" fill="white">
                        <use xlink:href="#path-5"></use>
                    </mask>
                    <g id="Clip-2"></g>
                    <path d="M58.3813561,63.5481612 C57.8614128,64.5153907 57.1760331,65.3587677 56.3311253,66.0664966 C55.4862175,66.7860211 54.4876901,67.3463065 53.3355431,67.7650461 C52.195213,68.177888 50.9721647,68.360718 49.6841234,68.3253315 L32.8805027,67.8004325 L33.3768121,51.8470427 L50.1863413,52.3719416 C51.427115,52.4073281 52.6088042,52.6491355 53.731409,53.0973638 C54.8540138,53.5396944 55.8289074,54.1235708 56.6501814,54.8607884 C57.4714554,55.5862106 58.1095676,56.441383 58.5763348,57.4086126 C59.0312852,58.3758422 59.2439892,59.4138446 59.214447,60.5226199 C59.1789963,61.5783156 58.9012994,62.5927271 58.3813561,63.5481612 M53.6368739,25.4133667 C54.7358448,25.908777 55.6811962,26.5575285 56.4847449,27.3301326 C57.2764767,28.1086344 57.9086804,28.9697047 58.3695392,29.9251387 C58.830398,30.8687773 59.0431021,31.8124159 59.0135598,32.744259 C58.9840176,33.7114886 58.7122291,34.6315362 58.1922858,35.4985041 C57.678251,36.3772676 56.9987797,37.1557694 56.1538719,37.8399074 C55.3030557,38.5181476 54.3222536,39.0607398 53.1996489,39.4381952 C52.0711356,39.8333439 50.8776295,40.0043784 49.6368558,39.9630942 L33.7667696,39.4617862 L34.2453537,24.1099659 L50.1213484,24.5994784 C51.3680306,24.6407626 52.5379029,24.906161 53.6368739,25.4133667 M79.3917905,52.6727264 C77.5247215,50.4846645 74.9427306,48.626876 71.6517261,47.0757701 C74.8481954,45.8431422 77.3415597,44.1740814 79.120002,42.0626901 C80.9043527,39.945401 81.8437956,37.23244 81.9442392,33.9179095 C82.0387744,31.0869937 81.3533946,28.391726 79.8999169,25.8262086 C78.4464391,23.2606912 76.3607576,20.9959586 73.6665062,19.026113 C70.9722548,17.0562675 67.7403348,15.4697751 63.9648377,14.2489427 C60.2011575,13.0281103 56.0297945,12.3439723 51.4448404,12.2024265 L42.3753756,11.9016417 L42.7239739,0.931843106 L34.8361983,0.678240235 L34.4935084,11.6421411 L20.449132,11.1762195 L20.7977303,0.241807388 L12.9158632,0 L12.5672649,10.9167189 L2.14476594,10.5746499 L1.7548085,23.0955544 L12.0945892,23.4140325 L10.7297382,67.1103968 L0.384048998,66.7801233 L0,79.1594821 L10.422499,79.4897556 L10.0502668,91.2675447 L17.932134,91.5152498 L18.3043661,79.7315629 L32.3369256,80.1738935 L31.9528766,92.5119681 L39.8347437,92.7596732 L40.2247012,80.4215987 L50.7653691,80.7518722 C55.0726263,80.8816225 59.1199119,80.4923716 62.883592,79.5723239 C66.6531807,78.6522763 69.9382767,77.2840004 72.7270633,75.491087 C75.5217583,73.692276 77.7492425,71.5219072 79.4095158,68.9858785 C81.0756976,66.4380543 81.9501477,63.6189341 82.0505913,60.5167222 C82.1392179,57.4734878 81.252951,54.8548907 79.3917905,52.6727264" id="Fill-1" fill="#009275" mask="url(#mask-6)"></path>
                </g>
                <g id="Page-1-Copy-6" transform="translate(368.500000, 845.500000) rotate(27.000000) translate(-368.500000, -845.500000) translate(337.000000, 810.000000)">
                    <mask id="mask-8" fill="white">
                        <use xlink:href="#path-7"></use>
                    </mask>
                    <g id="Clip-2"></g>
                    <path d="M44.5429327,48.4850242 C44.1462341,49.2229865 43.6233134,49.8664536 42.9786783,50.4064261 C42.3340432,50.955398 41.5722017,51.3828762 40.6931538,51.7023599 C39.8231219,52.0173438 38.8899787,52.1568367 37.9072483,52.1298381 L25.0866734,51.7293585 L25.4653402,39.5574801 L38.290423,39.9579596 C39.2370899,39.9849582 40.1386775,40.1694488 40.9951857,40.5114313 C41.8516938,40.8489141 42.5955036,41.2943914 43.2221069,41.8568626 C43.8487102,42.4103344 44.3355675,43.0628011 44.6916946,43.8007634 C45.0388058,44.5387257 45.2010916,45.3306853 45.1785519,46.1766421 C45.1515042,46.9821009 44.9396312,47.7560614 44.5429327,48.4850242 M40.9230587,19.3895099 C41.7615351,19.7674906 42.4828051,20.2624653 43.0958846,20.8519352 C43.6999483,21.4459049 44.1822976,22.1028714 44.5339168,22.8318341 C44.8855359,23.5517974 45.0478217,24.2717606 45.025282,24.9827243 C45.0027423,25.7206866 44.7953772,26.4226508 44.3986786,27.084117 C44.0064881,27.7545828 43.4880752,28.3485524 42.8434401,28.8705258 C42.1942971,29.3879993 41.4459794,29.8019782 40.5894713,30.0899635 C39.7284552,30.3914481 38.8178517,30.5219414 37.8711848,30.4904431 L25.7628641,30.1079626 L26.128007,18.3950607 L38.2408357,18.7685416 C39.1920106,18.80004 40.0845822,19.0025297 40.9230587,19.3895099 M60.5731592,40.1874479 C59.1486509,38.5180331 57.1786821,37.1006055 54.6677608,35.9171659 C57.1065551,34.976714 59.0089048,33.703279 60.3657941,32.0923613 C61.7271913,30.4769437 62.4439534,28.4070494 62.5205883,25.8781786 C62.5927153,23.7182889 62.0697945,21.6618939 60.9608418,19.7044938 C59.8518892,17.7470938 58.2605871,16.019182 56.2049675,14.5162587 C54.1493479,13.0133355 51.683506,11.8028973 48.8029338,10.8714449 C45.9313775,9.93999243 42.7487734,9.41801908 39.2506138,9.3100246 L32.3309294,9.08053632 L32.5968977,0.710963696 L26.5788008,0.517473576 L26.3173404,8.88254643 L15.6019725,8.52706458 L15.8679408,0.184490579 L9.85435186,0 L9.58838354,8.32907469 L1.63638139,8.06808802 L1.3388575,17.6211002 L9.22774852,17.8640878 L8.18641491,51.2028854 L0.293015952,50.9508983 L0,60.395916 L7.95200214,60.6479031 L7.66800207,69.6339442 L13.681591,69.8229346 L13.9655911,60.8323937 L24.6719432,61.1698765 L24.3789272,70.5833958 L30.3925161,70.7723861 L30.69004,61.3588668 L38.7322009,61.6108539 C42.0184875,61.7098489 45.1064249,61.412864 47.9779812,60.7108999 C50.8540455,60.0089357 53.3604588,58.964989 55.4882054,57.5970589 C57.62046,56.224629 59.3199525,54.5687135 60.586683,52.6338123 C61.8579214,50.6899116 62.5250962,48.5390214 62.6017312,46.1721423 C62.6693502,43.8502609 61.9931596,41.8523629 60.5731592,40.1874479" id="Fill-1" fill="#009275" mask="url(#mask-8)"></path>
                </g>
                <g id="Page-1-Copy-3" transform="translate(45.000000, 525.000000) rotate(29.000000) translate(-45.000000, -525.000000) translate(21.000000, 498.000000)">
                    <mask id="mask-10" fill="white">
                        <use xlink:href="#path-9"></use>
                    </mask>
                    <g id="Clip-2"></g>
                    <path d="M33.84901,36.8446792 C33.5475513,37.4054707 33.150174,37.8944534 32.6603037,38.3047886 C32.1704334,38.7219627 31.5914958,39.0468114 30.9234908,39.289593 C30.2623372,39.5289552 29.5532243,39.6349584 28.806429,39.6144417 L19.0638337,39.3101098 L19.3515896,30.060471 L29.0976106,30.3648029 C29.8170006,30.3853197 30.5021339,30.5255176 31.1530105,30.7853965 C31.8038871,31.041856 32.3691221,31.3803825 32.8452897,31.807815 C33.3214573,32.2284085 33.6914293,32.7242302 33.9620569,33.2850216 C34.2258333,33.845813 34.3491573,34.4476379 34.3320289,35.0904964 C34.3114749,35.7025797 34.1504686,36.2907268 33.84901,36.8446792 M31.0981998,14.7344522 C31.7353738,15.0216869 32.2834804,15.3978274 32.749371,15.8457767 C33.2084103,16.2971454 33.5749566,16.7963865 33.8421586,17.350339 C34.1093606,17.8974525 34.2326846,18.4445661 34.2155563,18.9848408 C34.1984279,19.5456322 34.0408473,20.0790679 33.7393886,20.5817285 C33.4413556,21.091228 33.047404,21.5425967 32.5575337,21.939254 C32.0642377,22.3324919 31.4955771,22.6470822 30.8447005,22.8659276 C30.1903982,23.0950314 29.4984136,23.1941958 28.7790236,23.1702595 L19.5776836,22.8796055 L19.8551626,13.9787516 L29.0599283,14.2625668 C29.7827439,14.286503 30.4610259,14.4403787 31.0981998,14.7344522 M46.0306798,30.5391954 C44.9481692,29.2705758 43.4511529,28.193446 41.5430567,27.2941281 C43.3963423,26.579461 44.8419735,25.6117538 45.8730991,24.3875872 C46.9076504,23.1600012 47.4523313,21.5870497 47.5105677,19.6653133 C47.5653783,18.0239726 47.168001,16.4612794 46.3252871,14.9738144 C45.4825731,13.4863494 44.2733129,12.1732769 42.711209,11.0311773 C41.1491051,9.88907772 39.2752656,8.96924303 37.0862647,8.26141485 C34.9041152,7.55358668 32.4855947,7.15692934 29.8272776,7.07486231 L24.5688796,6.90046986 L24.7709939,0.540274647 L20.1977292,0.393237876 L19.9990406,6.75001363 L11.8562315,6.4798763 L12.0583458,0.140197851 L7.48850681,0 L7.28639249,6.32942007 L1.24351691,6.13109141 L1.01742293,13.3906045 L7.01233917,13.5752554 L6.22101023,38.910033 L0.222668318,38.7185432 L0,45.8959893 L6.04287558,46.0874791 L5.82705859,52.9161403 L10.3968976,53.0597576 L10.6127146,46.2276769 L18.7486723,46.4841364 L18.526004,53.6376463 L23.095843,53.7812636 L23.321937,46.6277537 L29.4333259,46.8192435 C31.9306368,46.8944716 34.2772183,46.6687872 36.4593678,46.1353515 C38.6449429,45.6019158 40.5496135,44.8086011 42.166528,43.7690853 C43.7868683,42.7261501 45.0783445,41.4677889 46.0409568,39.9974212 C47.0069947,38.5202145 47.5139933,36.8857128 47.5722297,35.0870769 C47.6236147,33.3226357 47.1097647,31.8043955 46.0306798,30.5391954" id="Fill-1" fill="#009275" mask="url(#mask-10)"></path>
                </g>
                <g id="Page-1-Copy-5" transform="translate(234.500000, 228.000000) rotate(-23.000000) translate(-234.500000, -228.000000) translate(193.000000, 181.000000)">
                    <mask id="mask-12" fill="white">
                        <use xlink:href="#path-11"></use>
                    </mask>
                    <g id="Clip-2"></g>
                    <path d="M58.6658434,63.8578258 C58.1433665,64.8297686 57.4546469,65.6772553 56.605622,66.3884329 C55.756597,67.1114635 54.7532039,67.6744792 53.5954426,68.0952593 C52.4495557,68.5101129 51.2205476,68.6938338 49.9262298,68.6582749 L33.0407265,68.1308181 L33.5394544,52.0996888 L50.430895,52.6271455 C51.6777149,52.6627044 52.8651624,52.9056901 53.9932375,53.3561026 C55.1213126,53.8005886 56.1009568,54.3873102 56.9262328,55.1281202 C57.7515088,55.8570773 58.3927304,56.716417 58.8617722,57.6883598 C59.3189395,58.6603025 59.53268,59.7033631 59.5029938,60.8175414 C59.4673704,61.8783814 59.1883203,62.897736 58.6658434,63.8578258 M53.8982417,25.5372038 C55.0025678,26.0350282 55.9525258,26.686941 56.7599901,27.46331 C57.55558,28.2456054 58.1908644,29.1108715 58.6539689,30.0709613 C59.1170734,31.0191982 59.330814,31.967435 59.3011278,32.9038189 C59.2714416,33.8757617 58.9983287,34.8002926 58.4758518,35.6714852 C57.9593121,36.5545308 57.2765298,37.3368262 56.4275048,38.0242979 C55.5725426,38.7058432 54.5869612,39.2510794 53.4588861,39.6303741 C52.3248738,40.0274483 51.1255518,40.1993162 49.8787319,40.1578309 L33.9313121,39.65408 L34.4122283,24.2274517 L50.3655854,24.7193496 C51.6183425,24.7608349 52.7939155,25.0275265 53.8982417,25.5372038 M79.7786598,52.929396 C77.9024927,50.7306718 75.30792,48.8638305 72.0008787,47.3051662 C75.2129242,46.0665318 77.7184384,44.3893378 79.5055469,42.2676579 C81.2985926,40.1400514 82.2426133,37.4138705 82.3435464,34.0831885 C82.4385422,31.2384779 81.7498226,28.5300764 80.2892622,25.9520575 C78.8287018,23.3740385 76.732857,21.0982701 74.0254767,19.1188256 C71.3180964,17.1393812 68.0704275,15.545158 64.2765328,14.3183765 C60.4945125,13.0915951 56.3028229,12.4041234 51.6955266,12.2618879 L42.5818671,11.9596374 L42.9321641,0.936383896 L35.0059521,0.681545241 L34.6615923,11.6988722 L20.5487789,11.2306803 L20.8990759,0.242985694 L12.9788011,0 L12.6285041,10.9699151 L2.1552172,10.6261793 L1.76335953,23.2080971 L12.1535251,23.528127 L10.7820232,67.4374199 L0.385920435,67.105537 L0,79.5452193 L10.4732869,79.8771022 L10.0992409,91.7122835 L18.0195157,91.9611956 L18.3935617,80.1200879 L32.4945006,80.5645739 L32.1085802,92.9627708 L40.028855,93.211683 L40.4207126,80.8134861 L51.0127443,81.145369 C55.3409904,81.2757516 59.407998,80.8846039 63.1900183,79.9600729 C66.9779758,79.035542 70.2790798,77.6605986 73.0814559,75.8589485 C75.8897692,74.051372 78.1281078,71.8704272 79.7964715,69.3220407 C81.4707725,66.7618012 82.3494836,63.9289436 82.4504166,60.8116149 C82.5394752,57.753551 81.6488896,55.1221938 79.7786598,52.929396" id="Fill-1" fill="#009275" mask="url(#mask-12)"></path>
                </g>
                <g id="Page-1-Copy-4" transform="translate(1353.000000, 182.500000) rotate(-29.000000) translate(-1353.000000, -182.500000) translate(1319.000000, 144.000000)">
                    <mask id="mask-14" fill="white">
                        <use xlink:href="#path-13"></use>
                    </mask>
                    <g id="Clip-2"></g>
                    <path d="M48.0097388,52.2586459 C47.5821649,53.0540443 47.0185449,53.7475929 46.3237374,54.3295918 C45.6289299,54.9212906 44.8077938,55.3820397 43.8603291,55.726389 C42.922582,56.0658883 41.9168117,56.216238 40.8575947,56.1871381 L27.0391859,55.7554889 L27.4473246,42.6362651 L41.2705922,43.0679142 C42.2909388,43.0970142 43.2626975,43.2958638 44.1858683,43.664463 C45.109039,44.0282123 45.91074,44.5083614 46.5861123,45.1146101 C47.2614846,45.711159 47.7862343,46.4144076 48.170079,47.209806 C48.5442061,48.0052044 48.7191226,48.8588027 48.6948287,49.7706009 C48.6656759,50.6387491 48.4373126,51.4729475 48.0097388,52.2586459 M44.1081276,20.8986084 C45.0118632,21.3060076 45.7892701,21.8395065 46.450066,22.4748552 C47.1011444,23.115054 47.6210353,23.8231526 48.0000212,24.608851 C48.3790071,25.3848494 48.5539236,26.1608479 48.5296297,26.9271464 C48.5053357,27.7225448 48.2818312,28.4791433 47.8542574,29.1920919 C47.4315423,29.9147404 46.8727811,30.5549391 46.1779736,31.117538 C45.4783073,31.6752869 44.6717476,32.121486 43.7485769,32.4318854 C42.8205473,32.7568348 41.839071,32.8974845 40.8187244,32.8635345 L27.768005,32.4512854 L28.1615672,19.8267605 L41.2171454,20.2293097 C42.2423509,20.2632596 43.204392,20.4815092 44.1081276,20.8986084 M65.2876085,43.3152637 C63.7522298,41.5159173 61.628937,39.9881704 58.922589,38.7126229 C61.5511963,37.6989749 63.6016072,36.3264276 65.064104,34.5901311 C66.5314597,32.8489846 67.3040078,30.617989 67.3866073,27.8922944 C67.464348,25.5642991 66.900728,23.3478535 65.7054648,21.2381077 C64.5102016,19.1283619 62.7950474,17.2659656 60.5794376,15.6460688 C58.3638278,14.0261721 55.7060677,12.7215247 52.6012986,11.7175767 C49.5062472,10.7136287 46.0759389,10.1510298 42.3055152,10.03463 L34.8472671,9.78728051 L35.1339359,0.766298474 L28.6474466,0.557748889 L28.3656366,9.57388093 L16.8162844,9.19073169 L17.1029532,0.198849604 L10.6213226,0 L10.3346538,8.97733212 L1.76374205,8.69603268 L1.44306168,18.9925622 L9.94595033,19.2544616 L8.82356903,55.1880401 L0.315821579,54.9164406 L0,65.0965703 L8.57091177,65.3681698 L8.26480778,75.0536005 L14.7464383,75.2573001 L15.0525423,65.5670194 L26.5921769,65.9307687 L26.2763554,76.0769485 L32.7579859,76.2806481 L33.0786663,66.1344683 L41.7467539,66.4060677 C45.2888144,66.5127675 48.617088,66.1926682 51.7121394,65.4360697 C54.8120497,64.6794712 57.5135389,63.5542734 59.8068894,62.0798764 C62.1050988,60.6006293 63.9368639,58.8158329 65.3021849,56.730337 C66.6723647,54.6351412 67.3914661,52.3168458 67.4740656,49.7657509 C67.5469475,47.2631559 66.8181285,45.1097602 65.2876085,43.3152637" id="Fill-1" fill="#009275" mask="url(#mask-14)"></path>
                </g>
            </g>
        </g>
    </g>
</svg>