<?xml version="1.0" encoding="utf-8"?>
<!-- Generator: Adobe Illustrator 16.0.0, SVG Export Plug-In . SVG Version: 6.00 Build 0)  -->
<!DOCTYPE svg PUBLIC "-//W3C//DTD SVG 1.1//EN" "http://www.w3.org/Graphics/SVG/1.1/DTD/svg11.dtd">
<svg version="1.1" id="Layer_1" xmlns="http://www.w3.org/2000/svg" xmlns:xlink="http://www.w3.org/1999/xlink" x="0px" y="0px"
	 width="112px" height="116px" viewBox="0 0 112 116" enable-background="new 0 0 112 116" xml:space="preserve">
<path fill="none" stroke="#03f191" stroke-width="2" stroke-miterlimit="10" d="M104,106.365c0,4.217-3.418,7.635-7.635,7.635
	h-80.73C11.418,114,8,110.582,8,106.365v-69.73C8,32.418,11.418,29,15.635,29h80.73c4.217,0,7.635,3.418,7.635,7.635V106.365z"/>
<rect x="42" y="29" fill="none" stroke="#03f191" stroke-width="2" stroke-miterlimit="10" width="29" height="60"/>
<path fill="none" stroke="#03f191" stroke-width="2" stroke-miterlimit="10" d="M40.973,28.617"/>
<path fill="none" stroke="#03f191" stroke-width="2" stroke-miterlimit="10" d="M41.218,28.766c-4.625-0.343-8.28-1.628-10.694-3.22
	c-5.621-3.704-7.175-11.262-3.472-16.883c3.705-5.62,11.264-7.174,16.884-3.47s7.994,18.164,12.384,23.421"/>
<path fill="none" stroke="#03f191" stroke-width="2" stroke-miterlimit="10" d="M40.751,12.005
	c2.188,1.443,4.533,7.947,6.115,11.325c-4.673-0.611-7.899-1.412-10.648-2.969c-2.62-1.484-3.485-4.814-2.043-7.005
	C35.617,11.167,38.561,10.562,40.751,12.005z"/>
<path fill="none" stroke="#03f191" stroke-width="2" stroke-miterlimit="10" d="M71.685,28.766c4.626-0.343,8.017-1.628,10.431-3.22
	c5.621-3.704,7.174-11.262,3.471-16.883c-3.704-5.62-11.264-7.174-16.883-3.47c-5.621,3.704-7.995,18.164-12.384,23.421"/>
<path fill="none" stroke="#03f191" stroke-width="2" stroke-miterlimit="10" d="M71.888,12.005
	c-2.188,1.443-4.534,7.947-6.116,11.325c4.674-0.611,7.9-1.412,10.649-2.969c2.62-1.484,3.485-4.814,2.043-7.005
	C77.021,11.167,74.077,10.562,71.888,12.005z"/>
</svg>
