<?xml version="1.0" encoding="utf-8"?>
<!-- Generator: Adobe Illustrator 16.0.0, SVG Export Plug-In . SVG Version: 6.00 Build 0)  -->
<!DOCTYPE svg PUBLIC "-//W3C//DTD SVG 1.1//EN" "http://www.w3.org/Graphics/SVG/1.1/DTD/svg11.dtd">
<svg version="1.1" id="Layer_1" xmlns="http://www.w3.org/2000/svg" xmlns:xlink="http://www.w3.org/1999/xlink" x="0px" y="0px"
	 width="467px" height="321.354px" viewBox="0 0 467 321.354" enable-background="new 0 0 467 321.354" xml:space="preserve">
<linearGradient id="SVGID_1_" gradientUnits="userSpaceOnUse" x1="2474.0723" y1="824.4287" x2="2474.0723" y2="906.0674" gradientTransform="matrix(-1 0 0 -1 2672.793 949.998)">
	<stop  offset="0" style="stop-color:#FFD044"/>
	<stop  offset="0.9991" style="stop-color:#FFD044;stop-opacity:0"/>
</linearGradient>
<rect x="165.467" y="43.932" opacity="0.3" fill="url(#SVGID_1_)" enable-background="new    " width="66.507" height="81.639"/>
<linearGradient id="SVGID_2_" gradientUnits="userSpaceOnUse" x1="-28.6514" y1="263.0762" x2="-61.9099" y2="320.6817" gradientTransform="matrix(1 0 0 -1 244 416.3535)">
	<stop  offset="0" style="stop-color:#FFD044"/>
	<stop  offset="0.9996" style="stop-color:#E8A80A"/>
</linearGradient>
<circle fill="url(#SVGID_2_)" cx="198.72" cy="124.475" r="33.253"/>
<circle fill="#FFD044" cx="198.721" cy="124.475" r="28.295"/>
<path fill="#E8A80A" d="M207.396,124.881c-0.428-0.48-1.015-0.881-1.756-1.21c0.703-0.29,1.252-0.673,1.638-1.16
	c0.382-0.482,0.577-1.089,0.584-1.834c0.002-0.633-0.164-1.232-0.502-1.801c-0.339-0.562-0.814-1.061-1.429-1.48
	c-0.609-0.425-1.342-0.759-2.188-1.016c-0.846-0.251-1.783-0.382-2.803-0.383l-2.025-0.021l0.018-2.452l-1.762-0.013l-0.014,2.45
	l-3.136-0.025l0.021-2.444l-1.763-0.008l-0.019,2.438l-2.325-0.018l-0.016,2.801l2.305,0.014l-0.059,9.766l-2.31-0.015l-0.015,2.769
	l2.323,0.018l-0.014,2.634l1.758,0.007l0.016-2.631l3.134,0.021l-0.021,2.759l1.762,0.013l0.019-2.759l2.352,0.013
	c0.961,0.003,1.859-0.104,2.694-0.325c0.837-0.229,1.562-0.552,2.174-0.969c0.614-0.417,1.098-0.913,1.454-1.493
	c0.354-0.577,0.537-1.215,0.54-1.904C208.036,125.938,207.822,125.354,207.396,124.881z M201.504,118.935
	c0.244,0.104,0.458,0.241,0.643,0.414c0.179,0.173,0.328,0.354,0.433,0.564c0.106,0.205,0.16,0.416,0.163,0.625
	c-0.005,0.225-0.061,0.42-0.172,0.622c-0.107,0.199-0.254,0.378-0.442,0.532c-0.185,0.159-0.401,0.286-0.646,0.377
	c-0.252,0.09-0.516,0.137-0.797,0.134l-3.543-0.021l0.023-3.437l3.543,0.024C200.986,118.772,201.252,118.834,201.504,118.935z
	 M202.771,127.431c-0.111,0.217-0.263,0.409-0.443,0.569c-0.187,0.164-0.404,0.295-0.659,0.396
	c-0.254,0.096-0.522,0.147-0.809,0.146l-3.753-0.022l0.021-3.567l3.752,0.025c0.277,0.002,0.539,0.051,0.796,0.142
	c0.253,0.091,0.47,0.222,0.662,0.38c0.186,0.153,0.333,0.342,0.439,0.559c0.106,0.215,0.158,0.442,0.158,0.691
	C202.938,126.983,202.881,127.212,202.771,127.431z"/>
<linearGradient id="SVGID_3_" gradientUnits="userSpaceOnUse" x1="2387.2129" y1="799.6865" x2="2387.2129" y2="881.3271" gradientTransform="matrix(-1 0 0 -1 2672.793 949.998)">
	<stop  offset="0" style="stop-color:#FFD044"/>
	<stop  offset="0.9991" style="stop-color:#FFD044;stop-opacity:0"/>
</linearGradient>
<rect x="252.327" y="68.671" opacity="0.3" fill="url(#SVGID_3_)" enable-background="new    " width="66.505" height="81.641"/>
<linearGradient id="SVGID_4_" gradientUnits="userSpaceOnUse" x1="58.209" y1="238.3359" x2="24.9513" y2="295.9399" gradientTransform="matrix(1 0 0 -1 244 416.3535)">
	<stop  offset="0" style="stop-color:#FFD044"/>
	<stop  offset="0.9996" style="stop-color:#E8A80A"/>
</linearGradient>
<circle fill="url(#SVGID_4_)" cx="285.58" cy="149.215" r="33.252"/>
<circle fill="#FFD044" cx="285.579" cy="149.215" r="28.296"/>
<path fill="#E8A80A" d="M294.255,149.622c-0.429-0.479-1.015-0.881-1.756-1.209c0.703-0.29,1.25-0.673,1.636-1.161
	c0.385-0.481,0.58-1.09,0.586-1.835c0.002-0.629-0.166-1.23-0.502-1.801c-0.341-0.561-0.814-1.059-1.43-1.479
	c-0.609-0.426-1.341-0.76-2.189-1.016c-0.846-0.25-1.78-0.38-2.802-0.382l-2.024-0.022l0.017-2.453l-1.76-0.013l-0.015,2.452
	l-3.137-0.026l0.02-2.444l-1.76-0.008l-0.019,2.439l-2.326-0.02l-0.015,2.801l2.305,0.015l-0.061,9.767l-2.31-0.017l-0.016,2.77
	l2.325,0.019l-0.014,2.632l1.756,0.008l0.018-2.632l3.134,0.021l-0.021,2.759l1.763,0.014l0.017-2.759l2.352,0.012
	c0.962,0.004,1.861-0.102,2.695-0.325c0.835-0.229,1.562-0.551,2.176-0.968c0.612-0.416,1.096-0.913,1.451-1.493
	c0.356-0.576,0.538-1.216,0.538-1.906C294.893,150.68,294.682,150.096,294.255,149.622z M288.363,143.676
	c0.244,0.104,0.459,0.24,0.641,0.414c0.178,0.173,0.33,0.354,0.436,0.565c0.104,0.205,0.158,0.415,0.16,0.625
	c-0.002,0.221-0.06,0.42-0.172,0.621c-0.106,0.2-0.256,0.377-0.441,0.532c-0.186,0.16-0.401,0.285-0.646,0.378
	c-0.25,0.089-0.515,0.136-0.795,0.132l-3.542-0.021l0.021-3.437l3.545,0.024C287.845,143.515,288.112,143.574,288.363,143.676z
	 M289.631,152.171c-0.111,0.22-0.263,0.409-0.445,0.571c-0.187,0.165-0.402,0.294-0.656,0.396c-0.256,0.096-0.523,0.147-0.812,0.146
	l-3.753-0.022l0.023-3.567l3.748,0.024c0.281,0.003,0.543,0.052,0.799,0.142c0.253,0.091,0.47,0.221,0.662,0.379
	c0.184,0.156,0.33,0.343,0.438,0.56c0.107,0.215,0.16,0.443,0.16,0.692C289.797,151.724,289.738,151.952,289.631,152.171z"/>
<linearGradient id="SVGID_5_" gradientUnits="userSpaceOnUse" x1="2302.4609" y1="862.2686" x2="2302.4609" y2="943.9092" gradientTransform="matrix(-1 0 0 -1 2672.793 949.998)">
	<stop  offset="0" style="stop-color:#FFD044"/>
	<stop  offset="0.9991" style="stop-color:#FFD044;stop-opacity:0"/>
</linearGradient>
<rect x="337.08" y="6.09" opacity="0.3" fill="url(#SVGID_5_)" enable-background="new    " width="66.504" height="81.64"/>
<linearGradient id="SVGID_6_" gradientUnits="userSpaceOnUse" x1="142.9614" y1="300.918" x2="109.7034" y2="358.5226" gradientTransform="matrix(1 0 0 -1 244 416.3535)">
	<stop  offset="0" style="stop-color:#FFD044"/>
	<stop  offset="0.9996" style="stop-color:#E8A80A"/>
</linearGradient>
<circle fill="url(#SVGID_6_)" cx="370.332" cy="86.633" r="33.252"/>
<circle fill="#FFD044" cx="370.333" cy="86.633" r="28.295"/>
<path fill="#E8A80A" d="M379.008,87.039c-0.428-0.479-1.017-0.881-1.756-1.208c0.703-0.291,1.251-0.675,1.637-1.161
	c0.383-0.483,0.578-1.09,0.584-1.836c0.004-0.629-0.164-1.23-0.503-1.8c-0.338-0.56-0.814-1.059-1.427-1.479
	c-0.609-0.427-1.342-0.761-2.189-1.017c-0.846-0.25-1.782-0.382-2.803-0.383l-2.025-0.021l0.018-2.455l-1.76-0.013l-0.016,2.451
	l-3.135-0.025l0.02-2.442l-1.762-0.011l-0.02,2.44l-2.326-0.018l-0.016,2.8l2.308,0.012l-0.062,9.769l-2.311-0.017l-0.013,2.771
	l2.323,0.018l-0.014,2.634l1.758,0.007l0.017-2.634l3.133,0.022l-0.019,2.757l1.763,0.015l0.016-2.758l2.354,0.013
	c0.96,0.003,1.858-0.104,2.694-0.327c0.834-0.229,1.561-0.55,2.174-0.967c0.613-0.416,1.097-0.914,1.451-1.493
	c0.356-0.579,0.538-1.216,0.541-1.906C379.645,88.097,379.434,87.514,379.008,87.039z M373.114,81.093
	c0.245,0.104,0.46,0.241,0.644,0.416c0.178,0.172,0.327,0.352,0.434,0.562c0.105,0.206,0.16,0.418,0.162,0.626
	c-0.004,0.222-0.061,0.42-0.172,0.623c-0.107,0.197-0.256,0.375-0.442,0.532c-0.188,0.158-0.402,0.285-0.647,0.377
	c-0.25,0.087-0.513,0.136-0.794,0.132l-3.543-0.021l0.023-3.438l3.544,0.026C372.596,80.932,372.864,80.992,373.114,81.093z
	 M374.383,89.588c-0.109,0.22-0.263,0.411-0.443,0.573c-0.186,0.163-0.404,0.293-0.657,0.394c-0.255,0.097-0.522,0.147-0.812,0.146
	l-3.753-0.021l0.022-3.568l3.751,0.024c0.278,0.002,0.54,0.052,0.797,0.143c0.252,0.092,0.47,0.22,0.661,0.379
	c0.185,0.154,0.333,0.343,0.441,0.561c0.105,0.215,0.157,0.441,0.157,0.69C374.549,89.142,374.491,89.37,374.383,89.588z"/>
<path fill="#009275" d="M53.068,284.546c12.377,0.549,35.352-7.183,42.434-4.047c7.078,3.14,93.254,30.74,125.605,34.376
	c18.547,2.082,72.756-4.476,89.393-12.931c23.205-11.798,57.945-30.905,80.186-48.511c3.476-2.75,11.336-8.69,14.211-12.064
	c5.412-6.352,5.854-11.925,1.951-17.695c-2.776-4.106-9.143-9.048-17.348-6.729c-12.477,3.525-79.167,38.333-79.167,38.333
	s-89.646,10.451-124.13-7.839c-4.447-12.225,22.896-23.227,39.346-34.053c4.536-2.986,15.255-12.353,11.312-22.385
	c-2.939-7.479-12.082-8.228-16.793-7.007c-27.043,7.007-100.37,22.298-100.37,22.298l-70.561-0.173"/>
<linearGradient id="SVGID_7_" gradientUnits="userSpaceOnUse" x1="-216.7012" y1="171.6719" x2="-169.3789" y2="171.6719" gradientTransform="matrix(1 0 0 -1 244 416.3535)">
	<stop  offset="0" style="stop-color:#009275"/>
	<stop  offset="0.9996" style="stop-color:#00C475"/>
</linearGradient>
<path fill="url(#SVGID_7_)" d="M74.621,289.946c0,2.487-2.02,4.506-4.507,4.506h-38.31c-2.487,0-4.506-2.019-4.506-4.506v-90.528
	c0-2.487,2.019-4.507,4.506-4.507h38.31c2.487,0,4.507,2.02,4.507,4.507V289.946z"/>
<linearGradient id="SVGID_8_" gradientUnits="userSpaceOnUse" x1="-35.1064" y1="216.2939" x2="-11.5229" y2="216.2939" gradientTransform="matrix(1 0 0 -1 244 416.3535)">
	<stop  offset="0" style="stop-color:#009275"/>
	<stop  offset="0.9996" style="stop-color:#00C475"/>
</linearGradient>
<path fill="url(#SVGID_8_)" d="M219.773,211.746c1.49-0.878,2.924-1.756,4.252-2.632c3.151-2.073,10.598-8.579,7.857-15.547
	c-2.043-5.196-8.394-5.715-11.665-4.867c-3.047,0.789-6.94,1.729-11.324,2.752C210.961,195.015,216.064,204.674,219.773,211.746z"/>
</svg>
