<?xml version="1.0" encoding="utf-8"?>
<!-- Generator: Adobe Illustrator 16.0.0, SVG Export Plug-In . SVG Version: 6.00 Build 0)  -->
<!DOCTYPE svg PUBLIC "-//W3C//DTD SVG 1.1//EN" "http://www.w3.org/Graphics/SVG/1.1/DTD/svg11.dtd">
<svg version="1.1" id="Layer_1" xmlns="http://www.w3.org/2000/svg" xmlns:xlink="http://www.w3.org/1999/xlink" x="0px" y="0px"
	 width="467px" height="328.5px" viewBox="0 0 467 328.5" enable-background="new 0 0 467 328.5" xml:space="preserve">
<linearGradient id="SVGID_1_" gradientUnits="userSpaceOnUse" x1="-251.6831" y1="650.7354" x2="-251.6831" y2="709.4385" gradientTransform="matrix(1 0 0 1 488 -399.416)">
	<stop  offset="0" style="stop-color:#009275"/>
	<stop  offset="1" style="stop-color:#00C475;stop-opacity:0"/>
</linearGradient>
<rect x="159.312" y="251.319" opacity="0.1" fill="url(#SVGID_1_)" enable-background="new    " width="154.011" height="58.703"/>
<path fill="#00C475" d="M245.33,14.329c0,2.717-2.201,4.916-4.914,4.916h-8.051c-2.713,0-4.914-2.199-4.914-4.916V6.28
	c0-2.715,2.201-4.915,4.914-4.915h8.051c2.713,0,4.914,2.2,4.914,4.915V14.329z"/>
<linearGradient id="SVGID_2_" gradientUnits="userSpaceOnUse" x1="-328.6885" y1="650.7354" x2="-174.6777" y2="650.7354" gradientTransform="matrix(1 0 0 1 488 -399.416)">
	<stop  offset="0" style="stop-color:#009275"/>
	<stop  offset="0.9996" style="stop-color:#00C475"/>
</linearGradient>
<path fill="url(#SVGID_2_)" d="M307.109,244.227c-11.773-6.419-39.035-10.919-70.796-10.919c-31.759,0-59.017,4.5-70.792,10.919
	h-6.21v7.093c0,9.941,34.477,18.012,77.003,18.012c41.747,0,75.71-7.771,76.95-17.465h0.058v-7.64H307.109z"/>
<linearGradient id="SVGID_3_" gradientUnits="userSpaceOnUse" x1="-7.6831" y1="138.7842" x2="-7.6831" y2="102.7666" gradientTransform="matrix(1 0 0 -1 244 365)">
	<stop  offset="0" style="stop-color:#009275"/>
	<stop  offset="0.9996" style="stop-color:#00C475"/>
</linearGradient>
<path fill="url(#SVGID_3_)" d="M236.313,226.216c42.532,0,77.009,8.063,77.009,18.011c0,9.944-34.477,18.007-77.009,18.007
	c-42.526,0-77.003-8.062-77.003-18.007C159.311,234.28,193.787,226.216,236.313,226.216z"/>
<linearGradient id="SVGID_4_" gradientUnits="userSpaceOnUse" x1="-470.9023" y1="570.3389" x2="-331.2202" y2="570.3389" gradientTransform="matrix(1 0 0 1 488 -399.416)">
	<stop  offset="0" style="stop-color:#009275"/>
	<stop  offset="0.9996" style="stop-color:#00C475"/>
</linearGradient>
<path fill="url(#SVGID_4_)" d="M151.145,162.967c-10.679-7.198-35.402-12.245-64.208-12.245c-28.803,0-53.525,5.047-64.206,12.245
	l-5.633-2.959v10.914c0,11.147,31.27,20.202,69.839,20.202c37.864,0,68.666-8.716,69.791-19.591h0.052v-11.525L151.145,162.967z"/>
<linearGradient id="SVGID_5_" gradientUnits="userSpaceOnUse" x1="-157.061" y1="217.8408" x2="-157.061" y2="192.3096" gradientTransform="matrix(1 0 0 -1 244 365)">
	<stop  offset="0" style="stop-color:#009275"/>
	<stop  offset="0.9996" style="stop-color:#00C475"/>
</linearGradient>
<path fill="url(#SVGID_5_)" d="M86.937,147.159c38.576,0,69.843,5.717,69.843,12.767c0,7.049-31.267,12.765-69.843,12.765
	c-38.569,0-69.839-5.716-69.839-12.765C17.098,152.874,48.368,147.159,86.937,147.159z"/>
<rect x="227.452" y="8.902" fill="#00C475" width="17.91" height="238.66"/>
<circle fill="#00C475" cx="153.003" cy="64.878" r="3.979"/>
<circle fill="#00C475" cx="119.573" cy="64.878" r="3.979"/>
<circle fill="#00C475" cx="170.114" cy="64.878" r="3.979"/>
<circle fill="#00C475" cx="187.821" cy="64.878" r="3.979"/>
<rect x="86.197" y="15.82" transform="matrix(-0.9962 -0.0876 0.0876 -0.9962 464.213 55.7437)" fill="#009275" width="294.266" height="3.732"/>
<circle fill="#009275" cx="236.402" cy="18.264" r="5.866"/>
<circle fill="#009275" cx="86.938" cy="5.666" r="4.997"/>
<circle fill="#009275" cx="380.062" cy="30.43" r="4.997"/>
<path fill="#009275" d="M247.359,217.296h-22.086c-3.683,0-6.669,2.984-6.669,6.667v22.087c0,0.296,0.051,0.578,0.087,0.863
	c5.591,0.42,11.499,0.648,17.623,0.648c6.125,0,12.036-0.229,17.626-0.648c0.036-0.285,0.087-0.567,0.087-0.863v-22.087
	C254.027,220.281,251.041,217.296,247.359,217.296z"/>
<linearGradient id="SVGID_6_" gradientUnits="userSpaceOnUse" x1="-423.2363" y1="555.7383" x2="-376.9795" y2="555.7383" gradientTransform="matrix(1 0 0 1 488 -399.416)">
	<stop  offset="0" style="stop-color:#FFD044"/>
	<stop  offset="0.9996" style="stop-color:#E8A80A"/>
</linearGradient>
<path fill="url(#SVGID_6_)" d="M109.155,152.663c-3.538-3.312-11.723-5.631-21.265-5.631c-9.538,0-17.726,2.319-21.261,5.631h-1.865
	v3.659c0,5.131,10.355,9.291,23.127,9.291c12.539,0,22.739-4.008,23.113-9.009h0.017v-3.941H109.155L109.155,152.663z"/>
<ellipse fill="#FFD044" cx="87.89" cy="152.662" rx="23.13" ry="9.289"/>
<path fill="#009275" d="M92.116,153.298c-0.208-0.244-0.496-0.454-0.865-0.627c0.358-0.138,0.637-0.325,0.835-0.562
	c0.199-0.236,0.304-0.54,0.316-0.911c0.011-0.315-0.067-0.62-0.229-0.907c-0.163-0.287-0.396-0.541-0.697-0.764
	c-0.301-0.219-0.663-0.396-1.084-0.533c-0.42-0.139-0.889-0.215-1.401-0.229l-1.013-0.033l0.038-1.23l-0.882-0.026l-0.037,1.229
	l-1.573-0.055l0.041-1.224l-0.882-0.027l-0.039,1.224l-1.167-0.04l-0.042,1.403l1.156,0.037l-0.152,4.895l-1.157-0.034l-0.041,1.388
	l1.164,0.034l-0.041,1.321l0.883,0.024l0.04-1.316l1.57,0.051l-0.043,1.378l0.882,0.029l0.044-1.383l1.179,0.038
	c0.48,0.014,0.932-0.029,1.355-0.134c0.421-0.104,0.788-0.254,1.1-0.457c0.313-0.201,0.563-0.445,0.746-0.728
	c0.188-0.286,0.286-0.604,0.296-0.951C92.424,153.835,92.325,153.543,92.116,153.298z M89.237,150.245
	c0.123,0.056,0.228,0.127,0.317,0.217c0.089,0.085,0.16,0.182,0.21,0.286c0.051,0.108,0.076,0.214,0.074,0.317
	c-0.004,0.108-0.036,0.211-0.094,0.309c-0.057,0.098-0.132,0.186-0.228,0.264c-0.096,0.074-0.206,0.135-0.331,0.178
	c-0.126,0.045-0.26,0.062-0.399,0.061l-1.774-0.059l0.053-1.721l1.776,0.056C88.979,150.157,89.113,150.189,89.237,150.245z
	 M89.766,154.519c-0.058,0.107-0.135,0.202-0.23,0.281c-0.095,0.08-0.206,0.144-0.334,0.189c-0.128,0.045-0.265,0.066-0.409,0.062
	l-1.88-0.061l0.056-1.787l1.88,0.062c0.139,0.002,0.271,0.028,0.398,0.08c0.125,0.048,0.232,0.114,0.325,0.197
	c0.093,0.08,0.164,0.176,0.216,0.284c0.05,0.108,0.073,0.225,0.07,0.349C89.854,154.297,89.824,154.411,89.766,154.519z"/>
<linearGradient id="SVGID_7_" gradientUnits="userSpaceOnUse" x1="-427.1274" y1="548.334" x2="-380.8711" y2="548.334" gradientTransform="matrix(1 0 0 1 488 -399.416)">
	<stop  offset="0" style="stop-color:#FFD044"/>
	<stop  offset="0.9996" style="stop-color:#E8A80A"/>
</linearGradient>
<path fill="url(#SVGID_7_)" d="M105.264,145.258c-3.537-3.311-11.724-5.63-21.263-5.63c-9.539,0-17.726,2.319-21.263,5.63h-1.865
	v3.66c0,5.131,10.354,9.29,23.127,9.29c12.539,0,22.739-4.009,23.112-9.007h0.017v-3.943H105.264z"/>
<ellipse fill="#FFD044" cx="84" cy="145.259" rx="23.129" ry="9.289"/>
<path fill="#009275" d="M88.225,145.896c-0.208-0.245-0.496-0.455-0.864-0.627c0.357-0.139,0.635-0.327,0.835-0.562
	c0.198-0.237,0.304-0.542,0.316-0.914c0.011-0.317-0.067-0.619-0.23-0.906c-0.164-0.288-0.395-0.541-0.698-0.763
	c-0.302-0.22-0.662-0.397-1.084-0.533c-0.421-0.139-0.888-0.214-1.4-0.231l-1.015-0.033l0.039-1.229l-0.883-0.027l-0.036,1.229
	l-1.573-0.057l0.04-1.222l-0.88-0.029l-0.041,1.227l-1.166-0.04l-0.042,1.403l1.155,0.036l-0.152,4.896l-1.156-0.038l-0.042,1.388
	l1.165,0.036l-0.042,1.32l0.883,0.026l0.041-1.319l1.568,0.052l-0.042,1.38l0.883,0.027l0.044-1.381l1.177,0.036
	c0.482,0.016,0.934-0.026,1.355-0.132c0.423-0.104,0.789-0.258,1.101-0.456c0.313-0.203,0.562-0.445,0.746-0.729
	c0.188-0.286,0.286-0.604,0.297-0.951C88.532,146.433,88.433,146.139,88.225,145.896z M85.346,142.841
	c0.123,0.056,0.227,0.128,0.317,0.214c0.087,0.088,0.159,0.184,0.21,0.292c0.051,0.104,0.076,0.209,0.073,0.314
	c-0.005,0.106-0.037,0.21-0.094,0.309c-0.057,0.098-0.131,0.185-0.227,0.26c-0.095,0.078-0.206,0.138-0.33,0.183
	c-0.126,0.042-0.26,0.063-0.4,0.059l-1.774-0.055l0.054-1.724l1.773,0.057C85.09,142.755,85.221,142.785,85.346,142.841z
	 M85.875,147.113c-0.058,0.108-0.134,0.205-0.229,0.283c-0.095,0.08-0.206,0.142-0.335,0.188c-0.126,0.045-0.262,0.068-0.407,0.062
	l-1.88-0.057l0.056-1.789l1.88,0.061c0.138,0.004,0.27,0.029,0.397,0.08c0.125,0.049,0.233,0.115,0.325,0.197
	c0.094,0.082,0.165,0.179,0.218,0.287c0.05,0.106,0.073,0.224,0.07,0.35C85.964,146.894,85.933,147.006,85.875,147.113z"/>
<linearGradient id="SVGID_8_" gradientUnits="userSpaceOnUse" x1="-423.3032" y1="542.3418" x2="-377.0464" y2="542.3418" gradientTransform="matrix(1 0 0 1 488 -399.416)">
	<stop  offset="0" style="stop-color:#FFD044"/>
	<stop  offset="0.9996" style="stop-color:#E8A80A"/>
</linearGradient>
<path fill="url(#SVGID_8_)" d="M109.088,139.267c-3.536-3.312-11.723-5.631-21.263-5.631c-9.538,0-17.727,2.318-21.263,5.631h-1.865
	v3.66c0,5.128,10.354,9.289,23.128,9.289c12.539,0,22.739-4.012,23.111-9.01h0.018v-3.939H109.088z"/>
<path fill="#FFD044" d="M87.826,129.976c12.774,0,23.129,4.159,23.129,9.291c0,5.127-10.354,9.288-23.129,9.288
	s-23.128-4.161-23.128-9.288C64.698,134.135,75.051,129.976,87.826,129.976z"/>
<path fill="#E8A80A" d="M92.051,139.9c-0.208-0.246-0.498-0.454-0.866-0.628c0.357-0.137,0.636-0.322,0.835-0.562
	c0.198-0.237,0.304-0.539,0.316-0.913c0.009-0.315-0.067-0.619-0.23-0.908c-0.163-0.285-0.395-0.541-0.697-0.76
	c-0.301-0.222-0.663-0.397-1.085-0.536c-0.421-0.136-0.889-0.213-1.4-0.228l-1.014-0.036l0.038-1.229l-0.882-0.028l-0.038,1.229
	l-1.571-0.054l0.041-1.225l-0.883-0.026l-0.039,1.225l-1.167-0.038l-0.043,1.403l1.156,0.034l-0.152,4.896l-1.157-0.036
	l-0.042,1.388l1.165,0.038l-0.041,1.319l0.882,0.024l0.04-1.318l1.57,0.05l-0.043,1.383l0.883,0.028l0.043-1.382l1.178,0.035
	c0.482,0.014,0.934-0.028,1.355-0.131c0.423-0.104,0.79-0.257,1.102-0.458c0.313-0.2,0.562-0.443,0.747-0.729
	c0.187-0.285,0.285-0.604,0.295-0.948C92.356,140.438,92.259,140.144,92.051,139.9z M89.171,136.846
	c0.123,0.056,0.227,0.127,0.317,0.216c0.087,0.089,0.16,0.182,0.21,0.289c0.051,0.104,0.075,0.211,0.073,0.314
	c-0.004,0.111-0.035,0.211-0.094,0.311c-0.056,0.099-0.132,0.186-0.229,0.262c-0.094,0.077-0.205,0.139-0.328,0.182
	c-0.126,0.041-0.26,0.062-0.399,0.057l-1.775-0.055l0.053-1.724l1.776,0.058C88.915,136.759,89.047,136.792,89.171,136.846z
	 M89.701,141.12c-0.058,0.108-0.136,0.202-0.229,0.281c-0.096,0.08-0.207,0.144-0.336,0.189c-0.127,0.045-0.264,0.066-0.408,0.062
	l-1.88-0.059l0.056-1.788l1.88,0.06c0.139,0.005,0.27,0.032,0.397,0.081c0.125,0.049,0.233,0.116,0.327,0.198
	c0.091,0.08,0.163,0.176,0.214,0.285c0.051,0.108,0.074,0.225,0.071,0.35C89.79,140.898,89.759,141.013,89.701,141.12z"/>
<polyline fill="none" stroke="#009275" stroke-width="3" stroke-miterlimit="10" points="22.925,159.925 86.938,55.147 
	150.846,159.925 "/>
<ellipse fill="#009275" cx="22.925" cy="159.598" rx="2.975" ry="1.31"/>
<ellipse fill="#009275" cx="150.25" cy="159.598" rx="3.155" ry="1.389"/>
<line fill="none" stroke="#009275" stroke-width="3" stroke-miterlimit="10" x1="86.938" y1="2.925" x2="86.938" y2="55.147"/>
<linearGradient id="SVGID_9_" gradientUnits="userSpaceOnUse" x1="-177.7793" y1="597.7793" x2="-38.0977" y2="597.7793" gradientTransform="matrix(1 0 0 1 488 -399.416)">
	<stop  offset="0" style="stop-color:#009275"/>
	<stop  offset="0.9996" style="stop-color:#00C475"/>
</linearGradient>
<path fill="url(#SVGID_9_)" d="M444.268,190.406c-10.677-7.195-35.4-12.244-64.208-12.244c-28.803,0-53.524,5.048-64.206,12.244
	l-5.633-2.96v10.915c0,11.149,31.27,20.202,69.839,20.202c37.864,0,68.666-8.715,69.791-19.59h0.052v-11.527L444.268,190.406z"/>
<linearGradient id="SVGID_10_" gradientUnits="userSpaceOnUse" x1="136.0615" y1="190.4023" x2="136.0615" y2="164.8701" gradientTransform="matrix(1 0 0 -1 244 365)">
	<stop  offset="0" style="stop-color:#009275"/>
	<stop  offset="0.9996" style="stop-color:#00C475"/>
</linearGradient>
<path fill="url(#SVGID_10_)" d="M380.06,174.598c38.574,0,69.843,5.717,69.843,12.768c0,7.047-31.269,12.765-69.843,12.765
	c-38.569,0-69.839-5.718-69.839-12.765C310.221,180.314,341.49,174.598,380.06,174.598z"/>
<linearGradient id="SVGID_11_" gradientUnits="userSpaceOnUse" x1="-130.1133" y1="583.1787" x2="-83.8555" y2="583.1787" gradientTransform="matrix(1 0 0 1 488 -399.416)">
	<stop  offset="0" style="stop-color:#FFD044"/>
	<stop  offset="0.9996" style="stop-color:#E8A80A"/>
</linearGradient>
<path fill="url(#SVGID_11_)" d="M402.279,180.103c-3.539-3.311-11.725-5.63-21.264-5.63c-9.54,0-17.729,2.318-21.264,5.63h-1.865
	v3.66c0,5.129,10.354,9.29,23.129,9.29c12.536,0,22.736-4.009,23.109-9.007h0.02v-3.943H402.279L402.279,180.103z"/>
<ellipse fill="#FFD044" cx="381.016" cy="180.103" rx="23.129" ry="9.289"/>
<path fill="#009275" d="M385.238,180.737c-0.207-0.244-0.496-0.453-0.865-0.627c0.357-0.137,0.638-0.325,0.837-0.562
	c0.2-0.237,0.304-0.54,0.315-0.912c0.012-0.317-0.066-0.62-0.229-0.906c-0.162-0.288-0.396-0.542-0.696-0.764
	c-0.302-0.222-0.664-0.397-1.085-0.532c-0.42-0.14-0.889-0.216-1.4-0.232l-1.014-0.031l0.038-1.23l-0.883-0.027l-0.038,1.23
	l-1.57-0.057l0.04-1.224l-0.884-0.026l-0.038,1.224l-1.166-0.04l-0.043,1.404l1.156,0.035l-0.152,4.895l-1.157-0.034l-0.041,1.39
	l1.162,0.033l-0.041,1.321l0.885,0.025l0.039-1.317l1.569,0.051l-0.043,1.377l0.882,0.031l0.045-1.384l1.181,0.037
	c0.479,0.015,0.931-0.027,1.354-0.133c0.423-0.104,0.787-0.255,1.101-0.456c0.312-0.2,0.562-0.446,0.746-0.729
	c0.188-0.285,0.285-0.604,0.297-0.951C385.545,181.275,385.447,180.983,385.238,180.737z M382.359,177.685
	c0.125,0.055,0.229,0.127,0.317,0.216c0.09,0.086,0.16,0.183,0.209,0.288c0.053,0.107,0.076,0.212,0.073,0.318
	c-0.004,0.106-0.035,0.209-0.092,0.307c-0.059,0.097-0.135,0.186-0.229,0.264c-0.097,0.072-0.205,0.135-0.33,0.179
	c-0.126,0.043-0.261,0.062-0.399,0.059l-1.772-0.058l0.052-1.722l1.776,0.058C382.104,177.596,382.236,177.629,382.359,177.685z
	 M382.889,181.958c-0.057,0.108-0.135,0.201-0.23,0.282c-0.094,0.079-0.205,0.144-0.332,0.189s-0.266,0.067-0.408,0.062
	l-1.881-0.059l0.057-1.788l1.879,0.062c0.141,0.003,0.271,0.027,0.398,0.079c0.127,0.05,0.232,0.115,0.322,0.199
	c0.096,0.079,0.165,0.175,0.217,0.284c0.053,0.109,0.076,0.225,0.073,0.348C382.979,181.736,382.947,181.85,382.889,181.958z"/>
<linearGradient id="SVGID_12_" gradientUnits="userSpaceOnUse" x1="-134.0059" y1="575.7744" x2="-87.748" y2="575.7744" gradientTransform="matrix(1 0 0 1 488 -399.416)">
	<stop  offset="0" style="stop-color:#FFD044"/>
	<stop  offset="0.9996" style="stop-color:#E8A80A"/>
</linearGradient>
<path fill="url(#SVGID_12_)" d="M398.387,172.698c-3.536-3.311-11.723-5.63-21.264-5.63c-9.539,0-17.728,2.319-21.262,5.63h-1.867
	v3.66c0,5.13,10.356,9.29,23.129,9.29c12.539,0,22.738-4.009,23.111-9.007h0.018v-3.943H398.387L398.387,172.698z"/>
<ellipse fill="#FFD044" cx="377.123" cy="172.699" rx="23.129" ry="9.289"/>
<path fill="#009275" d="M381.348,173.336c-0.208-0.246-0.496-0.456-0.866-0.628c0.359-0.138,0.638-0.326,0.837-0.562
	c0.199-0.239,0.305-0.541,0.318-0.914c0.01-0.318-0.071-0.618-0.232-0.906c-0.162-0.289-0.395-0.542-0.697-0.763
	c-0.301-0.219-0.662-0.397-1.084-0.534c-0.422-0.138-0.89-0.213-1.4-0.229l-1.014-0.033l0.037-1.231l-0.883-0.025l-0.035,1.229
	l-1.572-0.054l0.041-1.224l-0.881-0.028l-0.041,1.227l-1.166-0.041l-0.045,1.404l1.156,0.037l-0.15,4.895l-1.156-0.038l-0.042,1.389
	l1.164,0.036l-0.041,1.319l0.885,0.027l0.038-1.32l1.568,0.051l-0.043,1.382l0.883,0.026l0.045-1.381l1.178,0.035
	c0.481,0.017,0.934-0.025,1.354-0.13c0.423-0.104,0.79-0.256,1.103-0.456c0.312-0.204,0.562-0.446,0.745-0.729
	c0.188-0.287,0.287-0.604,0.297-0.95C381.654,173.872,381.558,173.579,381.348,173.336z M378.469,170.279
	c0.123,0.059,0.227,0.128,0.318,0.216c0.086,0.087,0.158,0.185,0.207,0.291c0.053,0.105,0.078,0.21,0.076,0.315
	c-0.006,0.106-0.037,0.211-0.097,0.308c-0.056,0.1-0.132,0.187-0.229,0.263c-0.095,0.075-0.203,0.137-0.328,0.181
	c-0.125,0.043-0.26,0.062-0.398,0.059l-1.773-0.057l0.053-1.721l1.773,0.055C378.213,170.193,378.344,170.225,378.469,170.279z
	 M378.998,174.554c-0.06,0.105-0.135,0.204-0.229,0.282s-0.205,0.143-0.336,0.188c-0.127,0.044-0.262,0.068-0.405,0.063
	l-1.881-0.059l0.055-1.789l1.881,0.061c0.139,0.004,0.271,0.027,0.396,0.08c0.125,0.049,0.232,0.116,0.325,0.197
	c0.093,0.08,0.164,0.178,0.218,0.287c0.051,0.106,0.072,0.224,0.069,0.349C379.087,174.333,379.057,174.445,378.998,174.554z"/>
<linearGradient id="SVGID_13_" gradientUnits="userSpaceOnUse" x1="-133.1797" y1="569.7812" x2="-86.9219" y2="569.7812" gradientTransform="matrix(1 0 0 1 488 -399.416)">
	<stop  offset="0" style="stop-color:#FFD044"/>
	<stop  offset="0.9996" style="stop-color:#E8A80A"/>
</linearGradient>
<path fill="url(#SVGID_13_)" d="M399.213,166.705c-3.537-3.31-11.727-5.63-21.266-5.63c-9.537,0-17.725,2.32-21.261,5.63h-1.866
	v3.661c0,5.129,10.353,9.289,23.127,9.289c12.539,0,22.737-4.009,23.112-9.009h0.019v-3.94L399.213,166.705L399.213,166.705z"/>
<ellipse fill="#FFD044" cx="377.949" cy="166.705" rx="23.129" ry="9.29"/>
<path fill="#009275" d="M382.175,167.34c-0.209-0.245-0.498-0.455-0.867-0.627c0.356-0.138,0.638-0.323,0.836-0.562
	c0.199-0.236,0.304-0.539,0.315-0.912c0.011-0.314-0.066-0.619-0.229-0.909c-0.164-0.283-0.396-0.54-0.698-0.76
	c-0.3-0.221-0.66-0.396-1.084-0.536c-0.422-0.137-0.888-0.213-1.399-0.227l-1.013-0.036l0.039-1.229l-0.886-0.029l-0.038,1.229
	l-1.568-0.053l0.041-1.224l-0.887-0.026l-0.037,1.224l-1.166-0.038l-0.043,1.401l1.155,0.037l-0.151,4.894l-1.156-0.036l-0.043,1.39
	l1.165,0.038l-0.04,1.317l0.881,0.025l0.041-1.318l1.57,0.049l-0.043,1.384l0.881,0.027l0.045-1.381l1.177,0.035
	c0.481,0.015,0.935-0.029,1.356-0.131c0.422-0.104,0.789-0.258,1.1-0.459c0.312-0.2,0.562-0.443,0.75-0.729
	c0.186-0.285,0.282-0.604,0.295-0.948C382.479,167.878,382.381,167.583,382.175,167.34z M379.293,164.287
	c0.123,0.056,0.229,0.126,0.318,0.216c0.088,0.089,0.159,0.181,0.209,0.288c0.053,0.105,0.076,0.211,0.073,0.314
	c-0.004,0.11-0.036,0.211-0.093,0.312c-0.061,0.098-0.133,0.185-0.229,0.261c-0.095,0.077-0.207,0.138-0.328,0.181
	c-0.129,0.042-0.261,0.062-0.401,0.059l-1.771-0.057l0.051-1.723l1.774,0.057C379.037,164.199,379.17,164.231,379.293,164.287z
	 M379.824,168.56c-0.058,0.109-0.136,0.203-0.229,0.281c-0.096,0.08-0.207,0.144-0.335,0.188s-0.265,0.067-0.408,0.064l-1.881-0.062
	l0.058-1.785l1.877,0.06c0.141,0.004,0.272,0.031,0.397,0.081c0.125,0.049,0.235,0.114,0.326,0.198
	c0.093,0.08,0.165,0.175,0.216,0.284c0.051,0.108,0.075,0.225,0.07,0.35C379.912,168.339,379.881,168.453,379.824,168.56z"/>
<linearGradient id="SVGID_14_" gradientUnits="userSpaceOnUse" x1="-131.1201" y1="564.3213" x2="-84.8633" y2="564.3213" gradientTransform="matrix(1 0 0 1 488 -399.416)">
	<stop  offset="0" style="stop-color:#FFD044"/>
	<stop  offset="0.9996" style="stop-color:#E8A80A"/>
</linearGradient>
<path fill="url(#SVGID_14_)" d="M401.271,161.245c-3.537-3.31-11.726-5.63-21.265-5.63c-9.538,0-17.726,2.32-21.261,5.63h-1.866
	v3.661c0,5.129,10.352,9.289,23.127,9.289c12.539,0,22.737-4.009,23.112-9.009h0.018v-3.941H401.271L401.271,161.245z"/>
<ellipse fill="#FFD044" cx="380.007" cy="161.244" rx="23.13" ry="9.29"/>
<path fill="#009275" d="M384.233,159.88c-0.209-0.245-0.497-0.455-0.866-0.627c0.356-0.138,0.637-0.323,0.836-0.562
	c0.199-0.236,0.304-0.539,0.314-0.912c0.012-0.314-0.066-0.619-0.229-0.909c-0.164-0.283-0.396-0.54-0.698-0.76
	c-0.3-0.221-0.661-0.396-1.085-0.536c-0.422-0.137-0.887-0.213-1.399-0.227l-1.013-0.036l0.039-1.229l-0.885-0.029l-0.039,1.229
	l-1.568-0.053l0.041-1.224l-0.886-0.026l-0.038,1.224l-1.166-0.038l-0.042,1.401l1.155,0.037l-0.151,4.894l-1.157-0.036l-0.043,1.39
	l1.165,0.038l-0.04,1.317l0.881,0.025l0.041-1.318l1.57,0.05l-0.043,1.383l0.882,0.027l0.044-1.381l1.178,0.035
	c0.481,0.016,0.934-0.029,1.355-0.131c0.423-0.104,0.789-0.258,1.1-0.459c0.313-0.2,0.562-0.443,0.75-0.729
	c0.186-0.286,0.282-0.604,0.295-0.949C384.537,160.417,384.439,160.124,384.233,159.88z M381.353,156.827
	c0.122,0.056,0.228,0.126,0.317,0.216c0.089,0.089,0.16,0.181,0.21,0.288c0.052,0.105,0.075,0.211,0.073,0.314
	c-0.004,0.11-0.037,0.211-0.094,0.311c-0.06,0.099-0.133,0.186-0.229,0.262c-0.094,0.077-0.207,0.138-0.328,0.181
	c-0.128,0.042-0.26,0.062-0.4,0.058l-1.771-0.056l0.052-1.723l1.774,0.057C381.097,156.739,381.229,156.771,381.353,156.827z
	 M381.883,161.1c-0.059,0.108-0.137,0.203-0.229,0.281c-0.097,0.08-0.207,0.144-0.336,0.188c-0.128,0.045-0.265,0.067-0.408,0.064
	l-1.881-0.062l0.058-1.786l1.878,0.061c0.14,0.004,0.271,0.031,0.396,0.081c0.125,0.049,0.235,0.114,0.326,0.198
	c0.094,0.08,0.165,0.175,0.217,0.284c0.051,0.108,0.074,0.225,0.07,0.35C381.972,160.879,381.939,160.993,381.883,161.1z"/>
<linearGradient id="SVGID_15_" gradientUnits="userSpaceOnUse" x1="-131.1865" y1="557.2246" x2="-84.9297" y2="557.2246" gradientTransform="matrix(1 0 0 1 488 -399.416)">
	<stop  offset="0" style="stop-color:#FFD044"/>
	<stop  offset="0.9996" style="stop-color:#E8A80A"/>
</linearGradient>
<path fill="url(#SVGID_15_)" d="M401.205,154.148c-3.536-3.31-11.726-5.63-21.265-5.63c-9.538,0-17.725,2.32-21.261,5.63h-1.866
	v3.661c0,5.129,10.353,9.289,23.127,9.289c12.539,0,22.737-4.009,23.112-9.009h0.018v-3.941H401.205L401.205,154.148z"/>
<ellipse fill="#FFD044" cx="379.941" cy="154.147" rx="23.131" ry="9.29"/>
<path fill="#E8A80A" d="M384.168,153.783c-0.209-0.245-0.498-0.455-0.867-0.627c0.357-0.137,0.637-0.323,0.836-0.562
	c0.199-0.236,0.304-0.539,0.314-0.912c0.012-0.315-0.065-0.619-0.229-0.909c-0.164-0.284-0.395-0.54-0.698-0.76
	c-0.3-0.222-0.661-0.397-1.085-0.536c-0.421-0.137-0.887-0.213-1.398-0.227l-1.014-0.036l0.039-1.229l-0.885-0.03l-0.038,1.229
	l-1.569-0.053l0.041-1.225l-0.886-0.025l-0.038,1.224l-1.166-0.038l-0.041,1.401l1.154,0.037l-0.15,4.894l-1.158-0.036l-0.043,1.39
	l1.166,0.038l-0.041,1.317l0.882,0.025l0.04-1.318l1.57,0.049l-0.043,1.384l0.883,0.027l0.043-1.381l1.178,0.035
	c0.482,0.015,0.934-0.029,1.355-0.131c0.424-0.104,0.789-0.258,1.101-0.459c0.313-0.2,0.562-0.443,0.75-0.729
	c0.185-0.286,0.282-0.604,0.295-0.949C384.472,154.321,384.373,154.027,384.168,153.783z M381.287,150.73
	c0.121,0.055,0.228,0.126,0.316,0.215c0.09,0.089,0.16,0.182,0.21,0.288c0.052,0.106,0.076,0.211,0.073,0.315
	c-0.004,0.109-0.036,0.211-0.094,0.311c-0.059,0.098-0.133,0.186-0.229,0.261c-0.094,0.077-0.207,0.139-0.328,0.182
	c-0.127,0.042-0.26,0.062-0.4,0.058l-1.771-0.056l0.053-1.724l1.773,0.058C381.031,150.643,381.162,150.675,381.287,150.73z
	 M381.818,155.003c-0.059,0.108-0.137,0.202-0.229,0.28c-0.097,0.08-0.207,0.145-0.335,0.189c-0.129,0.045-0.266,0.066-0.408,0.063
	l-1.881-0.061l0.057-1.786l1.878,0.06c0.14,0.005,0.272,0.031,0.397,0.081s0.234,0.114,0.326,0.198
	c0.093,0.08,0.164,0.175,0.216,0.285c0.051,0.108,0.075,0.224,0.071,0.349C381.906,154.782,381.873,154.896,381.818,155.003z"/>
<polyline fill="none" stroke="#009275" stroke-width="3" stroke-miterlimit="10" points="316.049,187.365 380.062,82.588 
	443.969,187.365 "/>
<ellipse fill="#009275" cx="316.621" cy="187.037" rx="3.156" ry="1.389"/>
<ellipse fill="#009275" cx="443.373" cy="187.038" rx="3.156" ry="1.388"/>
<line fill="none" stroke="#009275" stroke-width="3" stroke-miterlimit="10" x1="380.062" y1="30.364" x2="380.062" y2="82.588"/>
<path fill="#009275" d="M258.886,76.917c0,2.878-2.334,5.213-5.213,5.213h-34.214c-2.879,0-5.214-2.335-5.214-5.213V53.129
	c0-2.877,2.335-5.214,5.214-5.214h34.214c2.879,0,5.213,2.337,5.213,5.214V76.917z"/>
<linearGradient id="SVGID_16_" gradientUnits="userSpaceOnUse" x1="-23.0205" y1="299.8359" x2="8.2607" y2="299.8359" gradientTransform="matrix(1 0 0 -1 244 365)">
	<stop  offset="0" style="stop-color:#009275"/>
	<stop  offset="0.9996" style="stop-color:#00C475"/>
</linearGradient>
<rect x="220.979" y="55.147" fill="url(#SVGID_16_)" width="31.281" height="20.032"/>
<polygon fill="#00C475" points="234.557,75.18 247.047,60.624 239.01,75.18 "/>
</svg>
