<?xml version="1.0" encoding="utf-8"?>
<!-- Generator: Adobe Illustrator 16.0.0, SVG Export Plug-In . SVG Version: 6.00 Build 0)  -->
<!DOCTYPE svg PUBLIC "-//W3C//DTD SVG 1.1//EN" "http://www.w3.org/Graphics/SVG/1.1/DTD/svg11.dtd">
<svg version="1.1" id="Layer_1" xmlns="http://www.w3.org/2000/svg" xmlns:xlink="http://www.w3.org/1999/xlink" x="0px" y="0px"
	 width="467px" height="321.354px" viewBox="0 0 467 321.354" enable-background="new 0 0 467 321.354" xml:space="preserve">
<linearGradient id="SVGID_1_" gradientUnits="userSpaceOnUse" x1="-478.646" y1="-239.6714" x2="-478.646" y2="-298.3755" gradientTransform="matrix(1 0 0 -1 732 16.9375)">
	<stop  offset="0" style="stop-color:#009275"/>
	<stop  offset="1" style="stop-color:#00C475;stop-opacity:0"/>
</linearGradient>
<rect x="157.984" y="256.608" opacity="0.1" fill="url(#SVGID_1_)" enable-background="new    " width="190.741" height="58.704"/>
<linearGradient id="SVGID_2_" gradientUnits="userSpaceOnUse" x1="-82.0801" y1="303.9355" x2="117.5" y2="303.9355" gradientTransform="matrix(1 0 0 -1 244 416.3535)">
	<stop  offset="4.233374e-04" style="stop-color:#FFD044"/>
	<stop  offset="1" style="stop-color:#E8A80A"/>
</linearGradient>
<circle fill="url(#SVGID_2_)" cx="261.71" cy="112.418" r="99.79"/>
<circle fill="#FFD044" cx="261.71" cy="112.418" r="84.913"/>
<path fill="#E8A80A" d="M287.743,113.636c-1.281-1.44-3.048-2.644-5.271-3.629c2.11-0.871,3.756-2.021,4.911-3.484
	c1.149-1.448,1.736-3.27,1.757-5.509c0.008-1.889-0.494-3.693-1.509-5.398c-1.018-1.684-2.446-3.178-4.282-4.441
	c-1.834-1.276-4.027-2.28-6.574-3.047c-2.537-0.75-5.349-1.142-8.411-1.146l-6.077-0.064l0.054-7.362l-5.286-0.038l-0.039,7.356
	l-9.41-0.082l0.061-7.333l-5.286-0.026l-0.054,7.325l-6.979-0.054l-0.049,8.404l6.921,0.036l-0.181,29.309l-6.932-0.044
	l-0.043,8.308l6.976,0.057l-0.043,7.897l5.28,0.021l0.043-7.899l9.4,0.065l-0.057,8.277l5.286,0.038l0.053-8.273l7.058,0.034
	c2.883,0.011,5.582-0.308,8.088-0.979c2.51-0.688,4.686-1.655,6.524-2.905c1.84-1.251,3.288-2.742,4.354-4.48
	c1.072-1.733,1.617-3.647,1.621-5.718C289.657,116.809,289.023,115.06,287.743,113.636z M270.059,95.788
	c0.737,0.313,1.381,0.726,1.931,1.244c0.532,0.519,0.985,1.062,1.299,1.696c0.317,0.618,0.481,1.252,0.485,1.877
	c-0.013,0.668-0.179,1.263-0.516,1.866c-0.324,0.599-0.768,1.131-1.328,1.601c-0.556,0.475-1.205,0.854-1.938,1.13
	c-0.753,0.264-1.545,0.411-2.387,0.396l-10.631-0.062l0.064-10.313l10.637,0.073C268.507,95.307,269.307,95.486,270.059,95.788z
	 M273.866,121.283c-0.333,0.656-0.786,1.229-1.331,1.717c-0.561,0.493-1.217,0.883-1.979,1.183c-0.761,0.287-1.57,0.443-2.429,0.44
	l-11.265-0.069l0.068-10.707l11.256,0.076c0.836,0.009,1.623,0.154,2.389,0.426c0.764,0.272,1.416,0.661,1.988,1.139
	c0.558,0.467,0.996,1.026,1.321,1.675c0.321,0.646,0.478,1.332,0.479,2.08C274.365,119.942,274.189,120.631,273.866,121.283z"/>
<linearGradient id="SVGID_3_" gradientUnits="userSpaceOnUse" x1="-441.7168" y1="427.9668" x2="-51.9355" y2="427.9668" gradientTransform="matrix(1 0 0 1 488 -289.6465)">
	<stop  offset="0" style="stop-color:#009275"/>
	<stop  offset="0.9996" style="stop-color:#00C475"/>
</linearGradient>
<path fill="url(#SVGID_3_)" d="M348.893,263.792H156.707l-14.244-38.307h-0.188L91.996,75.071L73.753,27.848h-27.47v-15h37.754
	l20.16,52.182h331.867l-56.578,160.457H158.466l8.666,23.306h181.759v14.999H348.893z M319.598,210.485h49.273l20.77-58.899h-70.043
	V210.485z M218.502,210.485h86.096v-58.899h-86.096V210.485L218.502,210.485z M153.078,210.485h50.425v-58.899H133.39
	L153.078,210.485z M319.598,136.586h75.331l19.942-56.557h-95.273V136.586L319.598,136.586z M218.502,136.586h86.096V80.029h-86.096
	V136.586L218.502,136.586z M128.374,136.586h75.128V80.029H109.47L128.374,136.586z"/>
<circle fill="#00C475" cx="210.114" cy="256.609" r="18.001"/>
<circle fill="#00C475" cx="312.781" cy="256.292" r="18.001"/>
<linearGradient id="SVGID_4_" gradientUnits="userSpaceOnUse" x1="-284.9019" y1="546.2549" x2="-270.8701" y2="546.2549" gradientTransform="matrix(1 0 0 1 488 -289.6465)">
	<stop  offset="0" style="stop-color:#009275"/>
	<stop  offset="0.9996" style="stop-color:#00C475"/>
</linearGradient>
<circle fill="url(#SVGID_4_)" cx="210.114" cy="256.609" r="7.016"/>
<linearGradient id="SVGID_5_" gradientUnits="userSpaceOnUse" x1="-182.2344" y1="545.9385" x2="-168.2031" y2="545.9385" gradientTransform="matrix(1 0 0 1 488 -289.6465)">
	<stop  offset="0" style="stop-color:#009275"/>
	<stop  offset="0.9996" style="stop-color:#00C475"/>
</linearGradient>
<circle fill="url(#SVGID_5_)" cx="312.781" cy="256.292" r="7.016"/>
<circle fill="#00C475" cx="46.283" cy="20.349" r="15.349"/>
</svg>
