<?xml version="1.0" encoding="utf-8"?>
<!-- Generator: Adobe Illustrator 16.0.0, SVG Export Plug-In . SVG Version: 6.00 Build 0)  -->
<!DOCTYPE svg PUBLIC "-//W3C//DTD SVG 1.1//EN" "http://www.w3.org/Graphics/SVG/1.1/DTD/svg11.dtd">
<svg version="1.1" id="Layer_1" xmlns="http://www.w3.org/2000/svg" xmlns:xlink="http://www.w3.org/1999/xlink" x="0px" y="0px"
	 width="467px" height="321.354px" viewBox="0 0 467 321.354" enable-background="new 0 0 467 321.354" xml:space="preserve">
<linearGradient id="SVGID_1_" gradientUnits="userSpaceOnUse" x1="-174.5" y1="360.3408" x2="153.5" y2="360.3408" gradientTransform="matrix(1 0 0 -1 244 416.3535)">
	<stop  offset="0" style="stop-color:#009275"/>
	<stop  offset="0.9996" style="stop-color:#00C475"/>
</linearGradient>
<polygon fill="url(#SVGID_1_)" points="69.5,124.37 69.5,105.676 233.5,-12.344 397.5,105.165 397.5,121.965 "/>
<polygon fill="#009275" points="71.445,138.436 71.445,119.963 233.5,3.343 395.556,119.458 395.556,136.059 "/>
<linearGradient id="SVGID_2_" gradientUnits="userSpaceOnUse" x1="-254.5005" y1="647.0752" x2="-254.5005" y2="712.9609" gradientTransform="matrix(1 0 0 1 488 -399.416)">
	<stop  offset="0" style="stop-color:#009275"/>
	<stop  offset="1" style="stop-color:#00C475;stop-opacity:0"/>
</linearGradient>
<rect x="69.5" y="247.659" opacity="0.1" fill="url(#SVGID_2_)" enable-background="new    " width="328" height="65.886"/>
<linearGradient id="SVGID_3_" gradientUnits="userSpaceOnUse" x1="87.3169" y1="278.1787" x2="-106.3511" y2="278.1787" gradientTransform="matrix(1 0 0 -1 244 416.3535)">
	<stop  offset="0" style="stop-color:#FFD044"/>
	<stop  offset="0.9996" style="stop-color:#E8A80A"/>
</linearGradient>
<circle fill="url(#SVGID_3_)" cx="234.484" cy="138.176" r="96.834"/>
<circle fill="#FFD044" cx="234.484" cy="138.176" r="82.398"/>
<path fill="#E8A80A" d="M262.047,116.975c-1.244-1.397-2.958-2.564-5.115-3.521c2.049-0.846,3.645-1.962,4.767-3.382
	c1.116-1.405,1.688-3.173,1.705-5.346c0.007-1.833-0.479-3.585-1.464-5.239c-0.986-1.633-2.374-3.084-4.156-4.311
	c-1.779-1.239-3.908-2.212-6.38-2.956c-2.462-0.728-5.188-1.108-8.162-1.113l-5.896-0.062l0.051-7.146l-5.13-0.036l-0.037,7.139
	l-9.132-0.08l0.057-7.115l-5.13-0.024l-0.051,7.106l-6.773-0.052l-0.047,8.155l6.716,0.036l-0.175,28.438l-6.726-0.042l-0.042,8.062
	l6.769,0.054l-0.041,7.664l5.124,0.021l0.042-7.666l9.122,0.063l-0.055,8.033l5.131,0.037l0.05-8.029l6.848,0.034
	c2.799,0.01,5.418-0.3,7.851-0.949c2.435-0.668,4.545-1.606,6.331-2.819c1.785-1.214,3.189-2.661,4.227-4.349
	c1.04-1.684,1.569-3.54,1.573-5.548C263.904,120.054,263.291,118.356,262.047,116.975z M244.886,99.655
	c0.716,0.306,1.339,0.703,1.872,1.207c0.518,0.504,0.957,1.031,1.261,1.646c0.309,0.6,0.468,1.214,0.472,1.82
	c-0.012,0.647-0.173,1.226-0.5,1.812c-0.313,0.58-0.744,1.097-1.289,1.552c-0.539,0.461-1.17,0.829-1.879,1.098
	c-0.729,0.256-1.499,0.397-2.315,0.386l-10.315-0.061l0.063-10.009l10.32,0.07C243.38,99.188,244.156,99.362,244.886,99.655z
	 M248.58,124.396c-0.321,0.638-0.764,1.194-1.291,1.666c-0.543,0.479-1.181,0.856-1.922,1.147c-0.736,0.278-1.522,0.431-2.354,0.428
	l-10.931-0.067l0.065-10.39l10.923,0.073c0.812,0.009,1.575,0.149,2.317,0.414c0.739,0.264,1.374,0.641,1.93,1.104
	c0.54,0.453,0.967,0.997,1.283,1.625c0.312,0.628,0.462,1.293,0.464,2.02C249.064,123.095,248.896,123.763,248.58,124.396z"/>
<linearGradient id="SVGID_4_" gradientUnits="userSpaceOnUse" x1="-174.5" y1="233.0225" x2="153.5" y2="233.0225" gradientTransform="matrix(1 0 0 -1 244 416.3535)">
	<stop  offset="0" style="stop-color:#009275"/>
	<stop  offset="0.9996" style="stop-color:#00C475"/>
</linearGradient>
<path fill="url(#SVGID_4_)" d="M397.5,250.812c0,2.041-1.791,3.696-4,3.696h-320c-2.209,0-4-1.655-4-3.696V115.849
	c0-2.042,1.791-3.696,4-3.696h320c2.209,0,4,1.654,4,3.696V250.812z"/>
<path fill="#00C475" d="M359.5,220.658c0,2.209-1.791,4-4,4h-96.666c-2.209,0-4-1.791-4-4V187.33c0-2.209,1.791-4,4-4H355.5
	c2.209,0,4,1.791,4,4V220.658z"/>
</svg>
