<?xml version="1.0" encoding="UTF-8"?>
<svg width="111px" height="111px" viewBox="0 0 111 111" version="1.1" xmlns="http://www.w3.org/2000/svg" xmlns:xlink="http://www.w3.org/1999/xlink">
    <!-- Generator: Sketch 50 (54983) - http://www.bohemiancoding.com/sketch -->
    <title>Group 2icon</title>
    <desc>Created with Sketch.</desc>
    <defs>
        <linearGradient x1="27.4998238%" y1="105.158772%" x2="72.1276733%" y2="-7.61430994%" id="linearGradient-1">
            <stop stop-color="#00C475" offset="0%"></stop>
            <stop stop-color="#009A75" offset="100%"></stop>
        </linearGradient>
    </defs>
    <g id="Welcome" stroke="none" stroke-width="1" fill="none" fill-rule="evenodd">
        <g id="Desktop-HD" transform="translate(-1335.000000, -3673.000000)" stroke-width="2">
            <g id="Group-2" transform="translate(1336.000000, 3674.000000)">
                <circle id="Oval-3-Copy-7" stroke="url(#linearGradient-1)" fill="#FFFFFF" cx="54.5" cy="54.5" r="54.5"></circle>
                <g id="ico-07" transform="translate(27.000000, 25.000000)" stroke="#00C475">
                    <path d="M9,21 L4,21 C1.791,21 0,22.791 0,25 L0,35 C0,37.209 1.791,39 4,39 L9,39 L9,21 Z" id="Shape"></path>
                    <path d="M47,39 L52,39 C54.209,39 56,37.209 56,35 L56,25 C56,22.791 54.209,21 52,21 L47,21 L47,39 Z" id="Shape"></path>
                    <path d="M7.166,21.103 C7.166,9.483 16.586,0.063 28.205,0.063 C39.826,0.063 49.245,9.483 49.245,21.103" id="Shape"></path>
                    <path d="M35.085,56.019 C42.771,56.019 49,49.789 49,42.104 L49,39" id="Shape"></path>
                    <ellipse id="Oval" cx="30.853" cy="56.125" rx="4.478" ry="2.75"></ellipse>
                </g>
            </g>
        </g>
    </g>
</svg>