<?xml version="1.0" encoding="UTF-8"?>
<svg width="111px" height="111px" viewBox="0 0 111 111" version="1.1" xmlns="http://www.w3.org/2000/svg" xmlns:xlink="http://www.w3.org/1999/xlink">
    <!-- Generator: Sketch 50 (54983) - http://www.bohemiancoding.com/sketch -->
    <title>Group 7icon</title>
    <desc>Created with Sketch.</desc>
    <defs>
        <linearGradient x1="27.4998238%" y1="105.158772%" x2="72.1276733%" y2="-7.61430994%" id="linearGradient-1">
            <stop stop-color="#00C475" offset="0%"></stop>
            <stop stop-color="#009A75" offset="100%"></stop>
        </linearGradient>
    </defs>
    <g id="Welcome" stroke="none" stroke-width="1" fill="none" fill-rule="evenodd">
        <g id="Desktop-HD" transform="translate(-741.000000, -3411.000000)" stroke-width="2">
            <g id="Group-7" transform="translate(742.000000, 3412.000000)">
                <circle id="Oval-3-Copy" stroke="url(#linearGradient-1)" fill="#FFFFFF" cx="54.5" cy="54.5" r="54.5"></circle>
                <g id="ico-04" transform="translate(21.000000, 39.000000)" stroke="#00C475">
                    <path d="M59,28.654 C59,31.054 56.721,33 54.321,33 L16.297,33 C13.896,33 12,31.054 12,28.654 L12,5.839 C12,4.639 12.461,3.306 13.247,2.519 C14.033,1.733 15.096,0.999 16.297,0.999 L54.321,0.999 C56.721,1 59,3.439 59,5.839 L59,28.654 Z" id="Shape"></path>
                    <polyline id="Shape" points="13.223 2.767 35.309 17.247 58.08 3.667"></polyline>
                    <path d="M7,25 L22,25" id="Shape"></path>
                    <path d="M0,18 L18,18" id="Shape"></path>
                    <path d="M7,10 L15,10" id="Shape"></path>
                </g>
            </g>
        </g>
    </g>
</svg>