<?xml version="1.0" encoding="UTF-8"?>
<svg width="111px" height="111px" viewBox="0 0 111 111" version="1.1" xmlns="http://www.w3.org/2000/svg" xmlns:xlink="http://www.w3.org/1999/xlink">
    <!-- Generator: Sketch 50 (54983) - http://www.bohemiancoding.com/sketch -->
    <title>Group 6icon</title>
    <desc>Created with Sketch.</desc>
    <defs>
        <linearGradient x1="27.4998238%" y1="105.158772%" x2="72.1276733%" y2="-7.61430994%" id="linearGradient-1">
            <stop stop-color="#00C475" offset="0%"></stop>
            <stop stop-color="#009A75" offset="100%"></stop>
        </linearGradient>
    </defs>
    <g id="Welcome" stroke="none" stroke-width="1" fill="none" fill-rule="evenodd">
        <g id="Desktop-HD" transform="translate(-458.000000, -3411.000000)" stroke-width="2">
            <g id="Group-6" transform="translate(459.000000, 3412.000000)">
                <circle id="Oval-3" stroke="url(#linearGradient-1)" fill="#FFFFFF" cx="54.5" cy="54.5" r="54.5"></circle>
                <g id="latwosc_dzialania" transform="translate(24.000000, 26.000000)" stroke="#00C475">
                    <path d="M20.575,15.985 C20.575,18.822 18.273,21.124 15.436,21.124 C12.594,21.124 10.291,18.822 10.291,15.985 C10.291,13.142 12.593,10.84 15.436,10.84 C18.272,10.84 20.575,13.143 20.575,15.985 Z" id="Shape"></path>
                    <path d="M15.43,31.773 C15.788,31.773 16.135,31.743 16.493,31.731 L17.962,29.111 C19.066,28.894 20.106,28.554 21.092,28.084 L23.823,29.348 C24.427,28.965 24.998,28.555 25.544,28.115 L25.192,25.101 C25.955,24.309 26.602,23.427 27.13,22.458 L30.085,21.854 C30.349,21.208 30.554,20.532 30.731,19.839 L28.705,17.625 C28.775,17.079 28.805,16.538 28.805,15.98 C28.805,15.416 28.776,14.876 28.705,14.347 L30.731,12.127 C30.554,11.434 30.349,10.759 30.085,10.112 L27.13,9.507 C26.602,8.538 25.955,7.657 25.192,6.864 L25.544,3.851 C24.998,3.398 24.428,2.999 23.823,2.618 L21.103,3.869 C20.122,3.399 19.065,3.058 17.961,2.853 L16.492,0.239 C16.135,0.209 15.789,0.18 15.43,0.18 C15.071,0.18 14.725,0.209 14.367,0.238 L12.898,2.852 C11.794,3.058 10.736,3.398 9.756,3.868 L7.037,2.618 C6.432,2.999 5.862,3.398 5.316,3.851 L5.668,6.864 C4.905,7.656 4.258,8.538 3.73,9.507 L0.776,10.112 C0.511,10.758 0.306,11.434 0.13,12.127 L2.156,14.347 C2.085,14.876 2.056,15.416 2.056,15.98 C2.056,16.538 2.085,17.078 2.156,17.625 L0.13,19.838 C0.306,20.531 0.511,21.206 0.776,21.853 L3.73,22.457 C4.258,23.426 4.905,24.308 5.668,25.1 L5.316,28.114 C5.862,28.554 6.432,28.965 7.037,29.347 L9.768,28.083 C10.755,28.554 11.794,28.894 12.898,29.11 L14.367,31.73 C14.725,31.743 15.072,31.773 15.43,31.773 Z" id="Shape"></path>
                    <path d="M47.834,41.857 C47.834,45.388 44.969,48.254 41.437,48.254 C37.899,48.254 35.033,45.388 35.033,41.857 C35.033,38.318 37.899,35.451 41.437,35.451 C44.969,35.451 47.834,38.318 47.834,41.857 Z" id="Shape"></path>
                    <path d="M41.43,61.513 C41.877,61.513 42.308,61.476 42.754,61.461 L44.582,58.198 C45.957,57.928 47.251,57.506 48.478,56.92 L51.878,58.493 C52.631,58.016 53.341,57.506 54.021,56.957 L53.583,53.205 C54.533,52.22 55.338,51.121 55.996,49.914 L59.675,49.163 C60.003,48.358 60.259,47.517 60.479,46.653 L57.957,43.897 C58.044,43.217 58.081,42.543 58.081,41.849 C58.081,41.148 58.044,40.474 57.957,39.817 L60.479,37.053 C60.259,36.19 60.003,35.348 59.675,34.543 L55.996,33.791 C55.338,32.585 54.533,31.487 53.583,30.5 L54.021,26.749 C53.341,26.186 52.631,25.688 51.878,25.213 L48.492,26.771 C47.271,26.186 45.956,25.762 44.581,25.506 L42.753,22.251 C42.307,22.215 41.876,22.179 41.429,22.179 C40.984,22.179 40.551,22.216 40.106,22.251 L38.278,25.506 C36.904,25.762 35.587,26.186 34.365,26.771 L30.981,25.213 C30.228,25.688 29.519,26.185 28.839,26.749 L29.277,30.5 C28.327,31.487 27.522,32.584 26.864,33.791 L23.186,34.543 C22.856,35.348 22.601,36.189 22.381,37.053 L24.903,39.817 C24.815,40.474 24.779,41.148 24.779,41.849 C24.779,42.543 24.815,43.217 24.903,43.897 L22.381,46.653 C22.6,47.516 22.856,48.358 23.186,49.163 L26.864,49.914 C27.522,51.121 28.327,52.22 29.277,53.205 L28.839,56.957 C29.519,57.506 30.228,58.017 30.981,58.493 L34.381,56.92 C35.61,57.506 36.904,57.929 38.278,58.198 L40.106,61.461 C40.552,61.476 40.984,61.513 41.43,61.513 Z" id="Shape"></path>
                </g>
            </g>
        </g>
    </g>
</svg>