<?xml version="1.0" encoding="utf-8"?>
<!-- Generator: Adobe Illustrator 16.0.0, SVG Export Plug-In . SVG Version: 6.00 Build 0)  -->
<!DOCTYPE svg PUBLIC "-//W3C//DTD SVG 1.1//EN" "http://www.w3.org/Graphics/SVG/1.1/DTD/svg11.dtd">
<svg version="1.1" id="Layer_1" xmlns="http://www.w3.org/2000/svg" xmlns:xlink="http://www.w3.org/1999/xlink" x="0px" y="0px"
	 width="155px" height="155px" viewBox="0 0 155 155" enable-background="new 0 0 155 155" xml:space="preserve">
<path fill="none" stroke="#03f191" stroke-width="2" stroke-miterlimit="10" d="M143,142.609c0,5.738-4.652,10.391-10.391,10.391
	H23.391C17.652,153,13,148.348,13,142.609V47.391C13,41.652,17.652,37,23.391,37h109.219C138.348,37,143,41.652,143,47.391V142.609z
	"/>
<rect x="59" y="37" fill="none" stroke="#03f191" stroke-width="2" stroke-miterlimit="10" width="40" height="82"/>
<path fill="none" stroke="#03f191" stroke-width="2" stroke-miterlimit="10" d="M57.874,36.798"/>
<path fill="none" stroke="#03f191" stroke-width="2" stroke-miterlimit="10" d="M58.208,37c-6.295-0.466-11.27-2.215-14.555-4.381
	c-7.65-5.041-9.765-15.328-4.725-22.977c5.042-7.649,15.329-9.763,22.978-4.723c7.649,5.042,10.88,24.721,16.854,31.875"/>
<path fill="none" stroke="#03f191" stroke-width="2" stroke-miterlimit="10" d="M57.572,14.19c2.979,1.964,6.17,10.815,8.323,15.413
	c-6.36-0.832-10.752-1.922-14.492-4.041c-3.566-2.02-4.744-6.552-2.78-9.533C50.586,13.05,54.592,12.227,57.572,14.19z"/>
<path fill="none" stroke="#03f191" stroke-width="2" stroke-miterlimit="10" d="M99.672,37c6.295-0.466,10.909-2.215,14.195-4.381
	c7.649-5.041,9.764-15.328,4.724-22.977c-5.042-7.649-15.329-9.763-22.978-4.723C87.964,9.961,84.733,29.64,78.76,36.795"/>
<path fill="none" stroke="#03f191" stroke-width="2" stroke-miterlimit="10" d="M99.947,14.19
	c-2.979,1.964-6.17,10.815-8.323,15.413c6.361-0.832,10.752-1.922,14.493-4.041c3.565-2.02,4.743-6.552,2.78-9.533
	C106.934,13.05,102.928,12.227,99.947,14.19z"/>
</svg>
